<?xml version="1.0" encoding="UTF-8"?>
<svg xmlns="http://www.w3.org/2000/svg" viewBox="0 0 340 510" width="340" height="510">
  <defs>
    <linearGradient id="sky" x1="0%" y1="0%" x2="0%" y2="100%">
      <stop offset="0%" stop-color="hsl(14,43%,36%)"/>
      <stop offset="45%" stop-color="hsl(56,35%,24%)"/>
      <stop offset="100%" stop-color="hsl(14,30%,14%)"/>
    </linearGradient>
    <radialGradient id="sun" cx="72%" cy="18%" r="45%">
      <stop offset="0%" stop-color="hsla(34,70%,72%,0.55)"/>
      <stop offset="100%" stop-color="transparent"/>
    </radialGradient>
    <linearGradient id="vignette" x1="50%" y1="50%" x2="50%" y2="100%">
      <stop offset="55%" stop-color="transparent"/>
      <stop offset="100%" stop-color="rgba(0,0,0,0.72)"/>
    </linearGradient>
    <filter id="blur"><feGaussianBlur stdDeviation="18"/></filter>
  </defs>
  <rect width="340" height="510" fill="url(#sky)"/>
  <rect width="340" height="510" fill="url(#sun)"/>
  <circle cx="288" cy="82" r="0.8" fill="white" opacity="0.25"/><circle cx="274" cy="148" r="1.4" fill="white" opacity="0.37"/><circle cx="260" cy="214" r="2" fill="white" opacity="0.49"/><circle cx="246" cy="80" r="0.8" fill="white" opacity="0.61"/><circle cx="232" cy="146" r="1.4" fill="white" opacity="0.73"/><circle cx="218" cy="212" r="2" fill="white" opacity="0.25"/><circle cx="204" cy="78" r="0.8" fill="white" opacity="0.37"/><circle cx="190" cy="144" r="1.4" fill="white" opacity="0.49"/><circle cx="176" cy="210" r="2" fill="white" opacity="0.61"/><circle cx="162" cy="76" r="0.8" fill="white" opacity="0.73"/><circle cx="148" cy="142" r="1.4" fill="white" opacity="0.25"/><circle cx="134" cy="208" r="2" fill="white" opacity="0.37"/><circle cx="120" cy="74" r="0.8" fill="white" opacity="0.49"/><circle cx="106" cy="140" r="1.4" fill="white" opacity="0.61"/><circle cx="92" cy="206" r="2" fill="white" opacity="0.73"/><circle cx="78" cy="72" r="0.8" fill="white" opacity="0.25"/><circle cx="64" cy="138" r="1.4" fill="white" opacity="0.37"/><circle cx="50" cy="204" r="2" fill="white" opacity="0.49"/>
  <circle cx="126" cy="146" r="51" fill="hsla(64,35%,36%,0.18)"/>
  <rect x="0" y="280" width="340" height="230" fill="hsla(14,25%,14%,0.35)" filter="url(#blur)" opacity="0.6"/>
  <ellipse cx="170" cy="206" rx="120" ry="90" fill="hsla(14,45%,36%,0.22)"/>
  
  <ellipse cx="170" cy="420" rx="200" ry="55" fill="hsla(14,35%,14%,0.55)"/>
  <g opacity="0.85">
    <ellipse cx="170" cy="360" rx="48" ry="12" fill="hsla(14,20%,8%,0.5)"/>
    <path d="M 156 360 L 170 246 L 184 360 Z" fill="hsla(44,35%,24%,0.75)"/>
    <circle cx="170" cy="206" r="22" fill="hsla(14,35%,36%,0.9)"/>
  </g>
  <rect x="0" y="0" width="340" height="510" fill="url(#vignette)" opacity="0.35"/>
  <rect width="340" height="510" fill="url(#vignette)"/>
  <text x="20" y="488" fill="hsla(14,18%,92%,0.7)" font-family="Outfit, system-ui, sans-serif" font-size="11" font-weight="600" letter-spacing="0.06em">AFTERGLOW TAXI</text>
  <text x="20" y="36" fill="hsla(14,25%,88%,0.35)" font-family="Outfit, system-ui, sans-serif" font-size="9" letter-spacing="0.12em">taxi sunset city drama</text>
</svg>