<?xml version="1.0" encoding="UTF-8"?>
<svg xmlns="http://www.w3.org/2000/svg" viewBox="0 0 340 510" width="340" height="510">
  <defs>
    <linearGradient id="sky" x1="0%" y1="0%" x2="0%" y2="100%">
      <stop offset="0%" stop-color="hsl(30,56%,42%)"/>
      <stop offset="45%" stop-color="hsl(72,48%,26%)"/>
      <stop offset="100%" stop-color="hsl(30,43%,16%)"/>
    </linearGradient>
    <radialGradient id="sun" cx="72%" cy="18%" r="45%">
      <stop offset="0%" stop-color="hsla(50,70%,72%,0.55)"/>
      <stop offset="100%" stop-color="transparent"/>
    </radialGradient>
    <linearGradient id="vignette" x1="50%" y1="50%" x2="50%" y2="100%">
      <stop offset="55%" stop-color="transparent"/>
      <stop offset="100%" stop-color="rgba(0,0,0,0.72)"/>
    </linearGradient>
    <filter id="blur"><feGaussianBlur stdDeviation="18"/></filter>
  </defs>
  <rect width="340" height="510" fill="url(#sky)"/>
  <rect width="340" height="510" fill="url(#sun)"/>
  <circle cx="86" cy="144" r="0.8" fill="white" opacity="0.25"/><circle cx="218" cy="76" r="1.4" fill="white" opacity="0.37"/><circle cx="30" cy="208" r="2" fill="white" opacity="0.49"/><circle cx="162" cy="140" r="0.8" fill="white" opacity="0.61"/><circle cx="294" cy="72" r="1.4" fill="white" opacity="0.73"/><circle cx="106" cy="204" r="2" fill="white" opacity="0.25"/><circle cx="238" cy="136" r="0.8" fill="white" opacity="0.37"/><circle cx="50" cy="68" r="1.4" fill="white" opacity="0.49"/><circle cx="182" cy="200" r="2" fill="white" opacity="0.61"/><circle cx="314" cy="132" r="0.8" fill="white" opacity="0.73"/><circle cx="126" cy="64" r="1.4" fill="white" opacity="0.25"/><circle cx="258" cy="196" r="2" fill="white" opacity="0.37"/><circle cx="70" cy="128" r="0.8" fill="white" opacity="0.49"/><circle cx="202" cy="60" r="1.4" fill="white" opacity="0.61"/><circle cx="14" cy="192" r="2" fill="white" opacity="0.73"/><circle cx="146" cy="124" r="0.8" fill="white" opacity="0.25"/><circle cx="278" cy="56" r="1.4" fill="white" opacity="0.37"/><circle cx="90" cy="188" r="2" fill="white" opacity="0.49"/>
  <circle cx="192" cy="112" r="42" fill="hsla(80,48%,42%,0.18)"/>
  <rect x="0" y="280" width="340" height="230" fill="hsla(30,38%,16%,0.35)" filter="url(#blur)" opacity="0.6"/>
  <ellipse cx="170" cy="192" rx="120" ry="90" fill="hsla(30,58%,42%,0.22)"/>
  
  <ellipse cx="170" cy="420" rx="200" ry="55" fill="hsla(30,48%,16%,0.55)"/>
  <g opacity="0.85">
    <ellipse cx="170" cy="360" rx="48" ry="12" fill="hsla(30,20%,8%,0.5)"/>
    <path d="M 162 360 L 170 232 L 178 360 Z" fill="hsla(60,48%,26%,0.75)"/>
    <circle cx="170" cy="212" r="22" fill="hsla(30,35%,42%,0.9)"/>
  </g>
  <rect x="0" y="0" width="340" height="510" fill="url(#vignette)" opacity="0.35"/>
  <rect width="340" height="510" fill="url(#vignette)"/>
  <text x="20" y="488" fill="hsla(30,18%,92%,0.7)" font-family="Outfit, system-ui, sans-serif" font-size="11" font-weight="600" letter-spacing="0.06em">AMBER CATACOMB</text>
  <text x="20" y="36" fill="hsla(30,25%,88%,0.35)" font-family="Outfit, system-ui, sans-serif" font-size="9" letter-spacing="0.12em">amber tomb fantasy underground</text>
</svg>