<?xml version="1.0" encoding="UTF-8"?>
<svg xmlns="http://www.w3.org/2000/svg" viewBox="0 0 340 510" width="340" height="510">
  <defs>
    <linearGradient id="sky" x1="0%" y1="0%" x2="0%" y2="100%">
      <stop offset="0%" stop-color="hsl(25,43%,36%)"/>
      <stop offset="45%" stop-color="hsl(67,35%,24%)"/>
      <stop offset="100%" stop-color="hsl(25,30%,14%)"/>
    </linearGradient>
    <radialGradient id="sun" cx="72%" cy="18%" r="45%">
      <stop offset="0%" stop-color="hsla(45,70%,72%,0.55)"/>
      <stop offset="100%" stop-color="transparent"/>
    </radialGradient>
    <linearGradient id="vignette" x1="50%" y1="50%" x2="50%" y2="100%">
      <stop offset="55%" stop-color="transparent"/>
      <stop offset="100%" stop-color="rgba(0,0,0,0.72)"/>
    </linearGradient>
    <filter id="blur"><feGaussianBlur stdDeviation="18"/></filter>
  </defs>
  <rect width="340" height="510" fill="url(#sky)"/>
  <rect width="340" height="510" fill="url(#sun)"/>
  <circle cx="17" cy="63" r="0.8" fill="white" opacity="0.25"/><circle cx="126" cy="212" r="1.4" fill="white" opacity="0.37"/><circle cx="235" cy="161" r="2" fill="white" opacity="0.49"/><circle cx="24" cy="110" r="0.8" fill="white" opacity="0.61"/><circle cx="133" cy="59" r="1.4" fill="white" opacity="0.73"/><circle cx="242" cy="208" r="2" fill="white" opacity="0.25"/><circle cx="31" cy="157" r="0.8" fill="white" opacity="0.37"/><circle cx="140" cy="106" r="1.4" fill="white" opacity="0.49"/><circle cx="249" cy="55" r="2" fill="white" opacity="0.61"/><circle cx="38" cy="204" r="0.8" fill="white" opacity="0.73"/><circle cx="147" cy="153" r="1.4" fill="white" opacity="0.25"/><circle cx="256" cy="102" r="2" fill="white" opacity="0.37"/><circle cx="45" cy="51" r="0.8" fill="white" opacity="0.49"/><circle cx="154" cy="200" r="1.4" fill="white" opacity="0.61"/><circle cx="263" cy="149" r="2" fill="white" opacity="0.73"/><circle cx="52" cy="98" r="0.8" fill="white" opacity="0.25"/><circle cx="161" cy="47" r="1.4" fill="white" opacity="0.37"/><circle cx="270" cy="196" r="2" fill="white" opacity="0.49"/>
  <circle cx="209" cy="129" r="59" fill="hsla(75,35%,36%,0.18)"/>
  <rect x="0" y="280" width="340" height="230" fill="hsla(25,25%,14%,0.35)" filter="url(#blur)" opacity="0.6"/>
  <ellipse cx="170" cy="169" rx="120" ry="90" fill="hsla(25,45%,36%,0.22)"/>
  
  <ellipse cx="170" cy="420" rx="200" ry="55" fill="hsla(25,35%,14%,0.55)"/>
  <g opacity="0.85">
    <ellipse cx="170" cy="360" rx="48" ry="12" fill="hsla(25,20%,8%,0.5)"/>
    <path d="M 159 360 L 170 249 L 181 360 Z" fill="hsla(55,35%,24%,0.75)"/>
    <circle cx="170" cy="209" r="22" fill="hsla(25,35%,36%,0.9)"/>
  </g>
  <rect x="0" y="0" width="340" height="510" fill="url(#vignette)" opacity="0.35"/>
  <rect width="340" height="510" fill="url(#vignette)"/>
  <text x="20" y="488" fill="hsla(25,18%,92%,0.7)" font-family="Outfit, system-ui, sans-serif" font-size="11" font-weight="600" letter-spacing="0.06em">BASALT SONG</text>
  <text x="20" y="36" fill="hsla(25,25%,88%,0.35)" font-family="Outfit, system-ui, sans-serif" font-size="9" letter-spacing="0.12em">volcanic island choir drama</text>
</svg>