<?xml version="1.0" encoding="UTF-8"?>
<svg xmlns="http://www.w3.org/2000/svg" viewBox="0 0 340 510" width="340" height="510">
  <defs>
    <linearGradient id="sky" x1="0%" y1="0%" x2="0%" y2="100%">
      <stop offset="0%" stop-color="hsl(188,70%,38%)"/>
      <stop offset="45%" stop-color="hsl(230,62%,22%)"/>
      <stop offset="100%" stop-color="hsl(188,57%,14%)"/>
    </linearGradient>
    <radialGradient id="sun" cx="72%" cy="18%" r="45%">
      <stop offset="0%" stop-color="hsla(208,70%,72%,0.55)"/>
      <stop offset="100%" stop-color="transparent"/>
    </radialGradient>
    <linearGradient id="vignette" x1="50%" y1="50%" x2="50%" y2="100%">
      <stop offset="55%" stop-color="transparent"/>
      <stop offset="100%" stop-color="rgba(0,0,0,0.72)"/>
    </linearGradient>
    <filter id="blur"><feGaussianBlur stdDeviation="18"/></filter>
  </defs>
  <rect width="340" height="510" fill="url(#sky)"/>
  <rect width="340" height="510" fill="url(#sun)"/>
  <circle cx="73" cy="167" r="0.8" fill="white" opacity="0.25"/><circle cx="94" cy="188" r="1.4" fill="white" opacity="0.37"/><circle cx="115" cy="209" r="2" fill="white" opacity="0.49"/><circle cx="136" cy="30" r="0.8" fill="white" opacity="0.61"/><circle cx="157" cy="51" r="1.4" fill="white" opacity="0.73"/><circle cx="178" cy="72" r="2" fill="white" opacity="0.25"/><circle cx="199" cy="93" r="0.8" fill="white" opacity="0.37"/><circle cx="220" cy="114" r="1.4" fill="white" opacity="0.49"/><circle cx="241" cy="135" r="2" fill="white" opacity="0.61"/><circle cx="262" cy="156" r="0.8" fill="white" opacity="0.73"/><circle cx="283" cy="177" r="1.4" fill="white" opacity="0.25"/><circle cx="304" cy="198" r="2" fill="white" opacity="0.37"/><circle cx="325" cy="219" r="0.8" fill="white" opacity="0.49"/><circle cx="26" cy="40" r="1.4" fill="white" opacity="0.61"/><circle cx="47" cy="61" r="2" fill="white" opacity="0.73"/><circle cx="68" cy="82" r="0.8" fill="white" opacity="0.25"/><circle cx="89" cy="103" r="1.4" fill="white" opacity="0.37"/><circle cx="110" cy="124" r="2" fill="white" opacity="0.49"/>
  <circle cx="81" cy="101" r="56" fill="hsla(238,62%,38%,0.18)"/>
  <rect x="0" y="280" width="340" height="230" fill="hsla(188,52%,14%,0.35)" filter="url(#blur)" opacity="0.6"/>
  <ellipse cx="170" cy="161" rx="120" ry="90" fill="hsla(188,72%,38%,0.22)"/>
  
  <ellipse cx="170" cy="420" rx="200" ry="55" fill="hsla(188,62%,14%,0.55)"/>
  <g opacity="0.85">
    <ellipse cx="170" cy="360" rx="48" ry="12" fill="hsla(188,20%,8%,0.5)"/>
    <path d="M 151 360 L 170 241 L 179 360 Z" fill="hsla(218,62%,22%,0.75)"/>
    <circle cx="170" cy="211" r="22" fill="hsla(188,35%,38%,0.9)"/>
  </g>
  <rect x="0" y="0" width="340" height="510" fill="url(#vignette)" opacity="0.35"/>
  <rect width="340" height="510" fill="url(#vignette)"/>
  <text x="20" y="488" fill="hsla(188,18%,92%,0.7)" font-family="Outfit, system-ui, sans-serif" font-size="11" font-weight="600" letter-spacing="0.06em">BINARY SONATA</text>
  <text x="20" y="36" fill="hsla(188,25%,88%,0.35)" font-family="Outfit, system-ui, sans-serif" font-size="9" letter-spacing="0.12em">piano hologram code symphony</text>
</svg>