<?xml version="1.0" encoding="UTF-8"?>
<svg xmlns="http://www.w3.org/2000/svg" viewBox="0 0 340 510" width="340" height="510">
  <defs>
    <linearGradient id="sky" x1="0%" y1="0%" x2="0%" y2="100%">
      <stop offset="0%" stop-color="hsl(95,36%,28%)"/>
      <stop offset="45%" stop-color="hsl(137,28%,18%)"/>
      <stop offset="100%" stop-color="hsl(95,23%,10%)"/>
    </linearGradient>
    <radialGradient id="sun" cx="72%" cy="18%" r="45%">
      <stop offset="0%" stop-color="hsla(115,70%,72%,0.55)"/>
      <stop offset="100%" stop-color="transparent"/>
    </radialGradient>
    <linearGradient id="vignette" x1="50%" y1="50%" x2="50%" y2="100%">
      <stop offset="55%" stop-color="transparent"/>
      <stop offset="100%" stop-color="rgba(0,0,0,0.72)"/>
    </linearGradient>
    <filter id="blur"><feGaussianBlur stdDeviation="18"/></filter>
  </defs>
  <rect width="340" height="510" fill="url(#sky)"/>
  <rect width="340" height="510" fill="url(#sun)"/>
  <circle cx="185" cy="55" r="0.8" fill="white" opacity="0.25"/><circle cx="30" cy="60" r="1.4" fill="white" opacity="0.37"/><circle cx="195" cy="65" r="2" fill="white" opacity="0.49"/><circle cx="40" cy="70" r="0.8" fill="white" opacity="0.61"/><circle cx="205" cy="75" r="1.4" fill="white" opacity="0.73"/><circle cx="50" cy="80" r="2" fill="white" opacity="0.25"/><circle cx="215" cy="85" r="0.8" fill="white" opacity="0.37"/><circle cx="60" cy="90" r="1.4" fill="white" opacity="0.49"/><circle cx="225" cy="95" r="2" fill="white" opacity="0.61"/><circle cx="70" cy="100" r="0.8" fill="white" opacity="0.73"/><circle cx="235" cy="105" r="1.4" fill="white" opacity="0.25"/><circle cx="80" cy="110" r="2" fill="white" opacity="0.37"/><circle cx="245" cy="115" r="0.8" fill="white" opacity="0.49"/><circle cx="90" cy="120" r="1.4" fill="white" opacity="0.61"/><circle cx="255" cy="125" r="2" fill="white" opacity="0.73"/><circle cx="100" cy="130" r="0.8" fill="white" opacity="0.25"/><circle cx="265" cy="135" r="1.4" fill="white" opacity="0.37"/><circle cx="110" cy="140" r="2" fill="white" opacity="0.49"/>
  <circle cx="65" cy="85" r="40" fill="hsla(145,28%,28%,0.18)"/>
  <rect x="0" y="280" width="340" height="230" fill="hsla(95,18%,10%,0.35)" filter="url(#blur)" opacity="0.6"/>
  <ellipse cx="170" cy="145" rx="120" ry="90" fill="hsla(95,38%,28%,0.22)"/>
  
  <ellipse cx="170" cy="420" rx="200" ry="55" fill="hsla(95,28%,10%,0.55)"/>
  <g opacity="0.85">
    <ellipse cx="170" cy="360" rx="48" ry="12" fill="hsla(95,20%,8%,0.5)"/>
    <path d="M 155 360 L 170 225 L 185 360 Z" fill="hsla(125,28%,18%,0.75)"/>
    <circle cx="170" cy="205" r="22" fill="hsla(95,35%,28%,0.9)"/>
  </g>
  <rect x="0" y="0" width="340" height="510" fill="url(#vignette)" opacity="0.35"/>
  <rect width="340" height="510" fill="url(#vignette)"/>
  <text x="20" y="488" fill="hsla(95,18%,92%,0.7)" font-family="Outfit, system-ui, sans-serif" font-size="11" font-weight="600" letter-spacing="0.06em">BONE GARDEN</text>
  <text x="20" y="36" fill="hsla(95,25%,88%,0.35)" font-family="Outfit, system-ui, sans-serif" font-size="9" letter-spacing="0.12em">gothic garden bones thriller</text>
</svg>