<?xml version="1.0" encoding="UTF-8"?>
<svg xmlns="http://www.w3.org/2000/svg" viewBox="0 0 340 510" width="340" height="510">
  <defs>
    <linearGradient id="sky" x1="0%" y1="0%" x2="0%" y2="100%">
      <stop offset="0%" stop-color="hsl(310,50%,48%)"/>
      <stop offset="45%" stop-color="hsl(352,42%,30%)"/>
      <stop offset="100%" stop-color="hsl(310,37%,18%)"/>
    </linearGradient>
    <radialGradient id="sun" cx="72%" cy="18%" r="45%">
      <stop offset="0%" stop-color="hsla(330,70%,72%,0.55)"/>
      <stop offset="100%" stop-color="transparent"/>
    </radialGradient>
    <linearGradient id="vignette" x1="50%" y1="50%" x2="50%" y2="100%">
      <stop offset="55%" stop-color="transparent"/>
      <stop offset="100%" stop-color="rgba(0,0,0,0.72)"/>
    </linearGradient>
    <filter id="blur"><feGaussianBlur stdDeviation="18"/></filter>
  </defs>
  <rect width="340" height="510" fill="url(#sky)"/>
  <rect width="340" height="510" fill="url(#sun)"/>
  <circle cx="81" cy="79" r="0.8" fill="white" opacity="0.25"/><circle cx="318" cy="116" r="1.4" fill="white" opacity="0.37"/><circle cx="235" cy="153" r="2" fill="white" opacity="0.49"/><circle cx="152" cy="190" r="0.8" fill="white" opacity="0.61"/><circle cx="69" cy="27" r="1.4" fill="white" opacity="0.73"/><circle cx="306" cy="64" r="2" fill="white" opacity="0.25"/><circle cx="223" cy="101" r="0.8" fill="white" opacity="0.37"/><circle cx="140" cy="138" r="1.4" fill="white" opacity="0.49"/><circle cx="57" cy="175" r="2" fill="white" opacity="0.61"/><circle cx="294" cy="212" r="0.8" fill="white" opacity="0.73"/><circle cx="211" cy="49" r="1.4" fill="white" opacity="0.25"/><circle cx="128" cy="86" r="2" fill="white" opacity="0.37"/><circle cx="45" cy="123" r="0.8" fill="white" opacity="0.49"/><circle cx="282" cy="160" r="1.4" fill="white" opacity="0.61"/><circle cx="199" cy="197" r="2" fill="white" opacity="0.73"/><circle cx="116" cy="34" r="0.8" fill="white" opacity="0.25"/><circle cx="33" cy="71" r="1.4" fill="white" opacity="0.37"/><circle cx="270" cy="108" r="2" fill="white" opacity="0.49"/>
  <circle cx="97" cy="117" r="47" fill="hsla(0,42%,48%,0.18)"/>
  <rect x="0" y="280" width="340" height="230" fill="hsla(310,32%,18%,0.35)" filter="url(#blur)" opacity="0.6"/>
  <ellipse cx="170" cy="217" rx="120" ry="90" fill="hsla(310,52%,48%,0.22)"/>
  
  <ellipse cx="170" cy="420" rx="200" ry="55" fill="hsla(310,42%,18%,0.55)"/>
  <g opacity="0.85">
    <ellipse cx="170" cy="360" rx="48" ry="12" fill="hsla(310,20%,8%,0.5)"/>
    <path d="M 167 360 L 170 257 L 178 360 Z" fill="hsla(340,42%,30%,0.75)"/>
    <circle cx="170" cy="227" r="22" fill="hsla(310,35%,48%,0.9)"/>
  </g>
  <rect x="0" y="0" width="340" height="510" fill="url(#vignette)" opacity="0.35"/>
  <rect width="340" height="510" fill="url(#vignette)"/>
  <text x="20" y="488" fill="hsla(310,18%,92%,0.7)" font-family="Outfit, system-ui, sans-serif" font-size="11" font-weight="600" letter-spacing="0.06em">CANDY ORBIT</text>
  <text x="20" y="36" fill="hsla(310,25%,88%,0.35)" font-family="Outfit, system-ui, sans-serif" font-size="9" letter-spacing="0.12em">cute planets pastel space romance</text>
</svg>