<?xml version="1.0" encoding="UTF-8"?>
<svg xmlns="http://www.w3.org/2000/svg" viewBox="0 0 340 510" width="340" height="510">
  <defs>
    <linearGradient id="sky" x1="0%" y1="0%" x2="0%" y2="100%">
      <stop offset="0%" stop-color="hsl(175,56%,42%)"/>
      <stop offset="45%" stop-color="hsl(217,48%,26%)"/>
      <stop offset="100%" stop-color="hsl(175,43%,16%)"/>
    </linearGradient>
    <radialGradient id="sun" cx="72%" cy="18%" r="45%">
      <stop offset="0%" stop-color="hsla(195,70%,72%,0.55)"/>
      <stop offset="100%" stop-color="transparent"/>
    </radialGradient>
    <linearGradient id="vignette" x1="50%" y1="50%" x2="50%" y2="100%">
      <stop offset="55%" stop-color="transparent"/>
      <stop offset="100%" stop-color="rgba(0,0,0,0.72)"/>
    </linearGradient>
    <filter id="blur"><feGaussianBlur stdDeviation="18"/></filter>
  </defs>
  <rect width="340" height="510" fill="url(#sky)"/>
  <rect width="340" height="510" fill="url(#sun)"/>
  <circle cx="144" cy="186" r="0.8" fill="white" opacity="0.25"/><circle cx="82" cy="124" r="1.4" fill="white" opacity="0.37"/><circle cx="20" cy="62" r="2" fill="white" opacity="0.49"/><circle cx="278" cy="200" r="0.8" fill="white" opacity="0.61"/><circle cx="216" cy="138" r="1.4" fill="white" opacity="0.73"/><circle cx="154" cy="76" r="2" fill="white" opacity="0.25"/><circle cx="92" cy="214" r="0.8" fill="white" opacity="0.37"/><circle cx="30" cy="152" r="1.4" fill="white" opacity="0.49"/><circle cx="288" cy="90" r="2" fill="white" opacity="0.61"/><circle cx="226" cy="28" r="0.8" fill="white" opacity="0.73"/><circle cx="164" cy="166" r="1.4" fill="white" opacity="0.25"/><circle cx="102" cy="104" r="2" fill="white" opacity="0.37"/><circle cx="40" cy="42" r="0.8" fill="white" opacity="0.49"/><circle cx="298" cy="180" r="1.4" fill="white" opacity="0.61"/><circle cx="236" cy="118" r="2" fill="white" opacity="0.73"/><circle cx="174" cy="56" r="0.8" fill="white" opacity="0.25"/><circle cx="112" cy="194" r="1.4" fill="white" opacity="0.37"/><circle cx="50" cy="132" r="2" fill="white" opacity="0.49"/>
  <circle cx="198" cy="118" r="48" fill="hsla(225,48%,42%,0.18)"/>
  <rect x="0" y="280" width="340" height="230" fill="hsla(175,38%,16%,0.35)" filter="url(#blur)" opacity="0.6"/>
  <ellipse cx="170" cy="158" rx="120" ry="90" fill="hsla(175,58%,42%,0.22)"/>
  <line x1="18" y1="0" x2="14" y2="22" stroke="hsla(175,55%,70%,0.18)" stroke-width="1.2"/><line x1="32" y1="19" x2="28" y2="41" stroke="hsla(175,55%,70%,0.18)" stroke-width="1.2"/><line x1="46" y1="38" x2="42" y2="60" stroke="hsla(175,55%,70%,0.18)" stroke-width="1.2"/><line x1="60" y1="57" x2="56" y2="79" stroke="hsla(175,55%,70%,0.18)" stroke-width="1.2"/><line x1="74" y1="76" x2="70" y2="98" stroke="hsla(175,55%,70%,0.18)" stroke-width="1.2"/><line x1="88" y1="95" x2="84" y2="117" stroke="hsla(175,55%,70%,0.18)" stroke-width="1.2"/><line x1="102" y1="114" x2="98" y2="136" stroke="hsla(175,55%,70%,0.18)" stroke-width="1.2"/><line x1="116" y1="133" x2="112" y2="155" stroke="hsla(175,55%,70%,0.18)" stroke-width="1.2"/><line x1="130" y1="152" x2="126" y2="174" stroke="hsla(175,55%,70%,0.18)" stroke-width="1.2"/><line x1="144" y1="171" x2="140" y2="193" stroke="hsla(175,55%,70%,0.18)" stroke-width="1.2"/><line x1="158" y1="190" x2="154" y2="212" stroke="hsla(175,55%,70%,0.18)" stroke-width="1.2"/><line x1="172" y1="209" x2="168" y2="231" stroke="hsla(175,55%,70%,0.18)" stroke-width="1.2"/><line x1="186" y1="228" x2="182" y2="250" stroke="hsla(175,55%,70%,0.18)" stroke-width="1.2"/><line x1="200" y1="247" x2="196" y2="269" stroke="hsla(175,55%,70%,0.18)" stroke-width="1.2"/><line x1="214" y1="266" x2="210" y2="288" stroke="hsla(175,55%,70%,0.18)" stroke-width="1.2"/><line x1="228" y1="285" x2="224" y2="307" stroke="hsla(175,55%,70%,0.18)" stroke-width="1.2"/><line x1="242" y1="304" x2="238" y2="326" stroke="hsla(175,55%,70%,0.18)" stroke-width="1.2"/><line x1="256" y1="323" x2="252" y2="345" stroke="hsla(175,55%,70%,0.18)" stroke-width="1.2"/><line x1="270" y1="342" x2="266" y2="364" stroke="hsla(175,55%,70%,0.18)" stroke-width="1.2"/><line x1="284" y1="361" x2="280" y2="383" stroke="hsla(175,55%,70%,0.18)" stroke-width="1.2"/><line x1="298" y1="380" x2="294" y2="402" stroke="hsla(175,55%,70%,0.18)" stroke-width="1.2"/><line x1="312" y1="399" x2="308" y2="421" stroke="hsla(175,55%,70%,0.18)" stroke-width="1.2"/><line x1="326" y1="18" x2="322" y2="40" stroke="hsla(175,55%,70%,0.18)" stroke-width="1.2"/><line x1="0" y1="37" x2="-4" y2="59" stroke="hsla(175,55%,70%,0.18)" stroke-width="1.2"/>
  <ellipse cx="170" cy="420" rx="200" ry="55" fill="hsla(175,48%,16%,0.55)"/>
  <g opacity="0.85">
    <ellipse cx="170" cy="360" rx="48" ry="12" fill="hsla(175,20%,8%,0.5)"/>
    <path d="M 168 360 L 170 238 L 182 360 Z" fill="hsla(205,48%,26%,0.75)"/>
    <circle cx="170" cy="208" r="22" fill="hsla(175,35%,42%,0.9)"/>
  </g>
  <rect x="0" y="0" width="340" height="510" fill="url(#vignette)" opacity="0.35"/>
  <rect width="340" height="510" fill="url(#vignette)"/>
  <text x="20" y="488" fill="hsla(175,18%,92%,0.7)" font-family="Outfit, system-ui, sans-serif" font-size="11" font-weight="600" letter-spacing="0.06em">CLOCKWORK RAIN</text>
  <text x="20" y="36" fill="hsla(175,25%,88%,0.35)" font-family="Outfit, system-ui, sans-serif" font-size="9" letter-spacing="0.12em">steampunk city raining gears</text>
</svg>