<?xml version="1.0" encoding="UTF-8"?>
<svg xmlns="http://www.w3.org/2000/svg" viewBox="0 0 340 510" width="340" height="510">
  <defs>
    <linearGradient id="sky" x1="0%" y1="0%" x2="0%" y2="100%">
      <stop offset="0%" stop-color="hsl(210,36%,28%)"/>
      <stop offset="45%" stop-color="hsl(252,28%,18%)"/>
      <stop offset="100%" stop-color="hsl(210,23%,10%)"/>
    </linearGradient>
    <radialGradient id="sun" cx="72%" cy="18%" r="45%">
      <stop offset="0%" stop-color="hsla(230,70%,72%,0.55)"/>
      <stop offset="100%" stop-color="transparent"/>
    </radialGradient>
    <linearGradient id="vignette" x1="50%" y1="50%" x2="50%" y2="100%">
      <stop offset="55%" stop-color="transparent"/>
      <stop offset="100%" stop-color="rgba(0,0,0,0.72)"/>
    </linearGradient>
    <filter id="blur"><feGaussianBlur stdDeviation="18"/></filter>
  </defs>
  <rect width="340" height="510" fill="url(#sky)"/>
  <rect width="340" height="510" fill="url(#sun)"/>
  <circle cx="179" cy="121" r="0.8" fill="white" opacity="0.25"/><circle cx="22" cy="164" r="1.4" fill="white" opacity="0.37"/><circle cx="185" cy="207" r="2" fill="white" opacity="0.49"/><circle cx="28" cy="50" r="0.8" fill="white" opacity="0.61"/><circle cx="191" cy="93" r="1.4" fill="white" opacity="0.73"/><circle cx="34" cy="136" r="2" fill="white" opacity="0.25"/><circle cx="197" cy="179" r="0.8" fill="white" opacity="0.37"/><circle cx="40" cy="22" r="1.4" fill="white" opacity="0.49"/><circle cx="203" cy="65" r="2" fill="white" opacity="0.61"/><circle cx="46" cy="108" r="0.8" fill="white" opacity="0.73"/><circle cx="209" cy="151" r="1.4" fill="white" opacity="0.25"/><circle cx="52" cy="194" r="2" fill="white" opacity="0.37"/><circle cx="215" cy="37" r="0.8" fill="white" opacity="0.49"/><circle cx="58" cy="80" r="1.4" fill="white" opacity="0.61"/><circle cx="221" cy="123" r="2" fill="white" opacity="0.73"/><circle cx="64" cy="166" r="0.8" fill="white" opacity="0.25"/><circle cx="227" cy="209" r="1.4" fill="white" opacity="0.37"/><circle cx="70" cy="52" r="2" fill="white" opacity="0.49"/>
  <circle cx="103" cy="123" r="53" fill="hsla(260,28%,28%,0.18)"/>
  <rect x="0" y="280" width="340" height="230" fill="hsla(210,18%,10%,0.35)" filter="url(#blur)" opacity="0.6"/>
  <ellipse cx="170" cy="143" rx="120" ry="90" fill="hsla(210,38%,28%,0.22)"/>
  
  <ellipse cx="170" cy="420" rx="200" ry="55" fill="hsla(210,28%,10%,0.55)"/>
  <g opacity="0.85">
    <ellipse cx="170" cy="360" rx="48" ry="12" fill="hsla(210,20%,8%,0.5)"/>
    <path d="M 153 360 L 170 223 L 177 360 Z" fill="hsla(240,28%,18%,0.75)"/>
    <circle cx="170" cy="213" r="22" fill="hsla(210,35%,28%,0.9)"/>
  </g>
  <rect x="0" y="0" width="340" height="510" fill="url(#vignette)" opacity="0.35"/>
  <rect width="340" height="510" fill="url(#vignette)"/>
  <text x="20" y="488" fill="hsla(210,18%,92%,0.7)" font-family="Outfit, system-ui, sans-serif" font-size="11" font-weight="600" letter-spacing="0.06em">COBALT MIRAGE</text>
  <text x="20" y="36" fill="hsla(210,25%,88%,0.35)" font-family="Outfit, system-ui, sans-serif" font-size="9" letter-spacing="0.12em">desert mirage city thriller</text>
</svg>