<?xml version="1.0" encoding="UTF-8"?>
<svg xmlns="http://www.w3.org/2000/svg" viewBox="0 0 340 510" width="340" height="510">
  <defs>
    <linearGradient id="sky" x1="0%" y1="0%" x2="0%" y2="100%">
      <stop offset="0%" stop-color="hsl(355,36%,28%)"/>
      <stop offset="45%" stop-color="hsl(37,28%,18%)"/>
      <stop offset="100%" stop-color="hsl(355,23%,10%)"/>
    </linearGradient>
    <radialGradient id="sun" cx="72%" cy="18%" r="45%">
      <stop offset="0%" stop-color="hsla(15,70%,72%,0.55)"/>
      <stop offset="100%" stop-color="transparent"/>
    </radialGradient>
    <linearGradient id="vignette" x1="50%" y1="50%" x2="50%" y2="100%">
      <stop offset="55%" stop-color="transparent"/>
      <stop offset="100%" stop-color="rgba(0,0,0,0.72)"/>
    </linearGradient>
    <filter id="blur"><feGaussianBlur stdDeviation="18"/></filter>
  </defs>
  <rect width="340" height="510" fill="url(#sky)"/>
  <rect width="340" height="510" fill="url(#sun)"/>
  <circle cx="29" cy="91" r="0.8" fill="white" opacity="0.25"/><circle cx="142" cy="44" r="1.4" fill="white" opacity="0.37"/><circle cx="255" cy="197" r="2" fill="white" opacity="0.49"/><circle cx="48" cy="150" r="0.8" fill="white" opacity="0.61"/><circle cx="161" cy="103" r="1.4" fill="white" opacity="0.73"/><circle cx="274" cy="56" r="2" fill="white" opacity="0.25"/><circle cx="67" cy="209" r="0.8" fill="white" opacity="0.37"/><circle cx="180" cy="162" r="1.4" fill="white" opacity="0.49"/><circle cx="293" cy="115" r="2" fill="white" opacity="0.61"/><circle cx="86" cy="68" r="0.8" fill="white" opacity="0.73"/><circle cx="199" cy="21" r="1.4" fill="white" opacity="0.25"/><circle cx="312" cy="174" r="2" fill="white" opacity="0.37"/><circle cx="105" cy="127" r="0.8" fill="white" opacity="0.49"/><circle cx="218" cy="80" r="1.4" fill="white" opacity="0.61"/><circle cx="11" cy="33" r="2" fill="white" opacity="0.73"/><circle cx="124" cy="186" r="0.8" fill="white" opacity="0.25"/><circle cx="237" cy="139" r="1.4" fill="white" opacity="0.37"/><circle cx="30" cy="92" r="2" fill="white" opacity="0.49"/>
  <circle cx="213" cy="133" r="38" fill="hsla(45,28%,28%,0.18)"/>
  <rect x="0" y="280" width="340" height="230" fill="hsla(355,18%,10%,0.35)" filter="url(#blur)" opacity="0.6"/>
  <ellipse cx="170" cy="173" rx="120" ry="90" fill="hsla(355,38%,28%,0.22)"/>
  
  <ellipse cx="170" cy="420" rx="200" ry="55" fill="hsla(355,28%,10%,0.55)"/>
  <g opacity="0.85">
    <ellipse cx="170" cy="360" rx="48" ry="12" fill="hsla(355,20%,8%,0.5)"/>
    <path d="M 163 360 L 170 253 L 177 360 Z" fill="hsla(25,28%,18%,0.75)"/>
    <circle cx="170" cy="213" r="22" fill="hsla(355,35%,28%,0.9)"/>
  </g>
  <rect x="0" y="0" width="340" height="510" fill="url(#vignette)" opacity="0.35"/>
  <rect width="340" height="510" fill="url(#vignette)"/>
  <text x="20" y="488" fill="hsla(355,18%,92%,0.7)" font-family="Outfit, system-ui, sans-serif" font-size="11" font-weight="600" letter-spacing="0.06em">CRIMSON ARCHIVE</text>
  <text x="20" y="36" fill="hsla(355,25%,88%,0.35)" font-family="Outfit, system-ui, sans-serif" font-size="9" letter-spacing="0.12em">dark library red candles thriller</text>
</svg>