<?xml version="1.0" encoding="UTF-8"?>
<svg xmlns="http://www.w3.org/2000/svg" viewBox="0 0 340 510" width="340" height="510">
  <defs>
    <linearGradient id="sky" x1="0%" y1="0%" x2="0%" y2="100%">
      <stop offset="0%" stop-color="hsl(205,70%,38%)"/>
      <stop offset="45%" stop-color="hsl(247,62%,22%)"/>
      <stop offset="100%" stop-color="hsl(205,57%,14%)"/>
    </linearGradient>
    <radialGradient id="sun" cx="72%" cy="18%" r="45%">
      <stop offset="0%" stop-color="hsla(225,70%,72%,0.55)"/>
      <stop offset="100%" stop-color="transparent"/>
    </radialGradient>
    <linearGradient id="vignette" x1="50%" y1="50%" x2="50%" y2="100%">
      <stop offset="55%" stop-color="transparent"/>
      <stop offset="100%" stop-color="rgba(0,0,0,0.72)"/>
    </linearGradient>
    <filter id="blur"><feGaussianBlur stdDeviation="18"/></filter>
  </defs>
  <rect width="340" height="510" fill="url(#sky)"/>
  <rect width="340" height="510" fill="url(#sun)"/>
  <circle cx="319" cy="61" r="0.8" fill="white" opacity="0.25"/><circle cx="102" cy="124" r="1.4" fill="white" opacity="0.37"/><circle cx="205" cy="187" r="2" fill="white" opacity="0.49"/><circle cx="308" cy="50" r="0.8" fill="white" opacity="0.61"/><circle cx="91" cy="113" r="1.4" fill="white" opacity="0.73"/><circle cx="194" cy="176" r="2" fill="white" opacity="0.25"/><circle cx="297" cy="39" r="0.8" fill="white" opacity="0.37"/><circle cx="80" cy="102" r="1.4" fill="white" opacity="0.49"/><circle cx="183" cy="165" r="2" fill="white" opacity="0.61"/><circle cx="286" cy="28" r="0.8" fill="white" opacity="0.73"/><circle cx="69" cy="91" r="1.4" fill="white" opacity="0.25"/><circle cx="172" cy="154" r="2" fill="white" opacity="0.37"/><circle cx="275" cy="217" r="0.8" fill="white" opacity="0.49"/><circle cx="58" cy="80" r="1.4" fill="white" opacity="0.61"/><circle cx="161" cy="143" r="2" fill="white" opacity="0.73"/><circle cx="264" cy="206" r="0.8" fill="white" opacity="0.25"/><circle cx="47" cy="69" r="1.4" fill="white" opacity="0.37"/><circle cx="150" cy="132" r="2" fill="white" opacity="0.49"/>
  <circle cx="123" cy="143" r="48" fill="hsla(255,62%,38%,0.18)"/>
  <rect x="0" y="280" width="340" height="230" fill="hsla(205,52%,14%,0.35)" filter="url(#blur)" opacity="0.6"/>
  <ellipse cx="170" cy="163" rx="120" ry="90" fill="hsla(205,72%,38%,0.22)"/>
  
  <ellipse cx="170" cy="420" rx="200" ry="55" fill="hsla(205,62%,14%,0.55)"/>
  <g opacity="0.85">
    <ellipse cx="170" cy="360" rx="48" ry="12" fill="hsla(205,20%,8%,0.5)"/>
    <path d="M 153 360 L 170 243 L 182 360 Z" fill="hsla(235,62%,22%,0.75)"/>
    <circle cx="170" cy="223" r="22" fill="hsla(205,35%,38%,0.9)"/>
  </g>
  <rect x="0" y="0" width="340" height="510" fill="url(#vignette)" opacity="0.35"/>
  <rect width="340" height="510" fill="url(#vignette)"/>
  <text x="20" y="488" fill="hsla(205,18%,92%,0.7)" font-family="Outfit, system-ui, sans-serif" font-size="11" font-weight="600" letter-spacing="0.06em">DEEP SIGNAL</text>
  <text x="20" y="36" fill="hsla(205,25%,88%,0.35)" font-family="Outfit, system-ui, sans-serif" font-size="9" letter-spacing="0.12em">submarine abyss bioluminescence</text>
</svg>