<?xml version="1.0" encoding="UTF-8"?>
<svg xmlns="http://www.w3.org/2000/svg" viewBox="0 0 340 510" width="340" height="510">
  <defs>
    <linearGradient id="sky" x1="0%" y1="0%" x2="0%" y2="100%">
      <stop offset="0%" stop-color="hsl(24,56%,42%)"/>
      <stop offset="45%" stop-color="hsl(66,48%,26%)"/>
      <stop offset="100%" stop-color="hsl(24,43%,16%)"/>
    </linearGradient>
    <radialGradient id="sun" cx="72%" cy="18%" r="45%">
      <stop offset="0%" stop-color="hsla(44,70%,72%,0.55)"/>
      <stop offset="100%" stop-color="transparent"/>
    </radialGradient>
    <linearGradient id="vignette" x1="50%" y1="50%" x2="50%" y2="100%">
      <stop offset="55%" stop-color="transparent"/>
      <stop offset="100%" stop-color="rgba(0,0,0,0.72)"/>
    </linearGradient>
    <filter id="blur"><feGaussianBlur stdDeviation="18"/></filter>
  </defs>
  <rect width="340" height="510" fill="url(#sky)"/>
  <rect width="340" height="510" fill="url(#sun)"/>
  <circle cx="42" cy="188" r="0.8" fill="white" opacity="0.25"/><circle cx="266" cy="212" r="1.4" fill="white" opacity="0.37"/><circle cx="170" cy="36" r="2" fill="white" opacity="0.49"/><circle cx="74" cy="60" r="0.8" fill="white" opacity="0.61"/><circle cx="298" cy="84" r="1.4" fill="white" opacity="0.73"/><circle cx="202" cy="108" r="2" fill="white" opacity="0.25"/><circle cx="106" cy="132" r="0.8" fill="white" opacity="0.37"/><circle cx="10" cy="156" r="1.4" fill="white" opacity="0.49"/><circle cx="234" cy="180" r="2" fill="white" opacity="0.61"/><circle cx="138" cy="204" r="0.8" fill="white" opacity="0.73"/><circle cx="42" cy="28" r="1.4" fill="white" opacity="0.25"/><circle cx="266" cy="52" r="2" fill="white" opacity="0.37"/><circle cx="170" cy="76" r="0.8" fill="white" opacity="0.49"/><circle cx="74" cy="100" r="1.4" fill="white" opacity="0.61"/><circle cx="298" cy="124" r="2" fill="white" opacity="0.73"/><circle cx="202" cy="148" r="0.8" fill="white" opacity="0.25"/><circle cx="106" cy="172" r="1.4" fill="white" opacity="0.37"/><circle cx="10" cy="196" r="2" fill="white" opacity="0.49"/>
  <circle cx="84" cy="104" r="59" fill="hsla(74,48%,42%,0.18)"/>
  <rect x="0" y="280" width="340" height="230" fill="hsla(24,38%,16%,0.35)" filter="url(#blur)" opacity="0.6"/>
  <ellipse cx="170" cy="204" rx="120" ry="90" fill="hsla(24,58%,42%,0.22)"/>
  
  <ellipse cx="170" cy="420" rx="200" ry="55" fill="hsla(24,48%,16%,0.55)"/>
  <g opacity="0.85">
    <ellipse cx="170" cy="360" rx="48" ry="12" fill="hsla(24,20%,8%,0.5)"/>
    <path d="M 154 360 L 170 244 L 176 360 Z" fill="hsla(54,48%,26%,0.75)"/>
    <circle cx="170" cy="214" r="22" fill="hsla(24,35%,42%,0.9)"/>
  </g>
  <rect x="0" y="0" width="340" height="510" fill="url(#vignette)" opacity="0.35"/>
  <rect width="340" height="510" fill="url(#vignette)"/>
  <text x="20" y="488" fill="hsla(24,18%,92%,0.7)" font-family="Outfit, system-ui, sans-serif" font-size="11" font-weight="600" letter-spacing="0.06em">EMBER CHRONICLE</text>
  <text x="20" y="36" fill="hsla(24,25%,88%,0.35)" font-family="Outfit, system-ui, sans-serif" font-size="9" letter-spacing="0.12em">fire mage castle ruins fantasy</text>
</svg>