<?xml version="1.0" encoding="UTF-8"?>
<svg xmlns="http://www.w3.org/2000/svg" viewBox="0 0 340 510" width="340" height="510">
  <defs>
    <linearGradient id="sky" x1="0%" y1="0%" x2="0%" y2="100%">
      <stop offset="0%" stop-color="hsl(298,50%,48%)"/>
      <stop offset="45%" stop-color="hsl(340,42%,30%)"/>
      <stop offset="100%" stop-color="hsl(298,37%,18%)"/>
    </linearGradient>
    <radialGradient id="sun" cx="72%" cy="18%" r="45%">
      <stop offset="0%" stop-color="hsla(318,70%,72%,0.55)"/>
      <stop offset="100%" stop-color="transparent"/>
    </radialGradient>
    <linearGradient id="vignette" x1="50%" y1="50%" x2="50%" y2="100%">
      <stop offset="55%" stop-color="transparent"/>
      <stop offset="100%" stop-color="rgba(0,0,0,0.72)"/>
    </linearGradient>
    <filter id="blur"><feGaussianBlur stdDeviation="18"/></filter>
  </defs>
  <rect width="340" height="510" fill="url(#sky)"/>
  <rect width="340" height="510" fill="url(#sun)"/>
  <circle cx="204" cy="46" r="0.8" fill="white" opacity="0.25"/><circle cx="162" cy="164" r="1.4" fill="white" opacity="0.37"/><circle cx="120" cy="82" r="2" fill="white" opacity="0.49"/><circle cx="78" cy="200" r="0.8" fill="white" opacity="0.61"/><circle cx="36" cy="118" r="1.4" fill="white" opacity="0.73"/><circle cx="314" cy="36" r="2" fill="white" opacity="0.25"/><circle cx="272" cy="154" r="0.8" fill="white" opacity="0.37"/><circle cx="230" cy="72" r="1.4" fill="white" opacity="0.49"/><circle cx="188" cy="190" r="2" fill="white" opacity="0.61"/><circle cx="146" cy="108" r="0.8" fill="white" opacity="0.73"/><circle cx="104" cy="26" r="1.4" fill="white" opacity="0.25"/><circle cx="62" cy="144" r="2" fill="white" opacity="0.37"/><circle cx="20" cy="62" r="0.8" fill="white" opacity="0.49"/><circle cx="298" cy="180" r="1.4" fill="white" opacity="0.61"/><circle cx="256" cy="98" r="2" fill="white" opacity="0.73"/><circle cx="214" cy="216" r="0.8" fill="white" opacity="0.25"/><circle cx="172" cy="134" r="1.4" fill="white" opacity="0.37"/><circle cx="130" cy="52" r="2" fill="white" opacity="0.49"/>
  <circle cx="178" cy="98" r="53" fill="hsla(348,42%,48%,0.18)"/>
  <rect x="0" y="280" width="340" height="230" fill="hsla(298,32%,18%,0.35)" filter="url(#blur)" opacity="0.6"/>
  <ellipse cx="170" cy="178" rx="120" ry="90" fill="hsla(298,52%,48%,0.22)"/>
  
  <ellipse cx="170" cy="420" rx="200" ry="55" fill="hsla(298,42%,18%,0.55)"/>
  <g opacity="0.85">
    <ellipse cx="170" cy="360" rx="48" ry="12" fill="hsla(298,20%,8%,0.5)"/>
    <path d="M 168 360 L 170 258 L 177 360 Z" fill="hsla(328,42%,30%,0.75)"/>
    <circle cx="170" cy="228" r="22" fill="hsla(298,35%,48%,0.9)"/>
  </g>
  <rect x="0" y="0" width="340" height="510" fill="url(#vignette)" opacity="0.35"/>
  <rect width="340" height="510" fill="url(#vignette)"/>
  <text x="20" y="488" fill="hsla(298,18%,92%,0.7)" font-family="Outfit, system-ui, sans-serif" font-size="11" font-weight="600" letter-spacing="0.06em">ETHER BRIDE</text>
  <text x="20" y="36" fill="hsla(298,25%,88%,0.35)" font-family="Outfit, system-ui, sans-serif" font-size="9" letter-spacing="0.12em">ethereal bride veil romance</text>
</svg>