<?xml version="1.0" encoding="UTF-8"?>
<svg xmlns="http://www.w3.org/2000/svg" viewBox="0 0 340 510" width="340" height="510">
  <defs>
    <linearGradient id="sky" x1="0%" y1="0%" x2="0%" y2="100%">
      <stop offset="0%" stop-color="hsl(195,50%,48%)"/>
      <stop offset="45%" stop-color="hsl(237,42%,30%)"/>
      <stop offset="100%" stop-color="hsl(195,37%,18%)"/>
    </linearGradient>
    <radialGradient id="sun" cx="72%" cy="18%" r="45%">
      <stop offset="0%" stop-color="hsla(215,70%,72%,0.55)"/>
      <stop offset="100%" stop-color="transparent"/>
    </radialGradient>
    <linearGradient id="vignette" x1="50%" y1="50%" x2="50%" y2="100%">
      <stop offset="55%" stop-color="transparent"/>
      <stop offset="100%" stop-color="rgba(0,0,0,0.72)"/>
    </linearGradient>
    <filter id="blur"><feGaussianBlur stdDeviation="18"/></filter>
  </defs>
  <rect width="340" height="510" fill="url(#sky)"/>
  <rect width="340" height="510" fill="url(#sun)"/>
  <circle cx="312" cy="218" r="0.8" fill="white" opacity="0.25"/><circle cx="306" cy="132" r="1.4" fill="white" opacity="0.37"/><circle cx="300" cy="46" r="2" fill="white" opacity="0.49"/><circle cx="294" cy="160" r="0.8" fill="white" opacity="0.61"/><circle cx="288" cy="74" r="1.4" fill="white" opacity="0.73"/><circle cx="282" cy="188" r="2" fill="white" opacity="0.25"/><circle cx="276" cy="102" r="0.8" fill="white" opacity="0.37"/><circle cx="270" cy="216" r="1.4" fill="white" opacity="0.49"/><circle cx="264" cy="130" r="2" fill="white" opacity="0.61"/><circle cx="258" cy="44" r="0.8" fill="white" opacity="0.73"/><circle cx="252" cy="158" r="1.4" fill="white" opacity="0.25"/><circle cx="246" cy="72" r="2" fill="white" opacity="0.37"/><circle cx="240" cy="186" r="0.8" fill="white" opacity="0.49"/><circle cx="234" cy="100" r="1.4" fill="white" opacity="0.61"/><circle cx="228" cy="214" r="2" fill="white" opacity="0.73"/><circle cx="222" cy="128" r="0.8" fill="white" opacity="0.25"/><circle cx="216" cy="42" r="1.4" fill="white" opacity="0.37"/><circle cx="210" cy="156" r="2" fill="white" opacity="0.49"/>
  <circle cx="174" cy="94" r="49" fill="hsla(245,42%,48%,0.18)"/>
  <rect x="0" y="280" width="340" height="230" fill="hsla(195,32%,18%,0.35)" filter="url(#blur)" opacity="0.6"/>
  <ellipse cx="170" cy="214" rx="120" ry="90" fill="hsla(195,52%,48%,0.22)"/>
  
  <ellipse cx="170" cy="420" rx="200" ry="55" fill="hsla(195,42%,18%,0.55)"/>
  <g opacity="0.85">
    <ellipse cx="170" cy="360" rx="48" ry="12" fill="hsla(195,20%,8%,0.5)"/>
    <path d="M 164 360 L 170 254 L 181 360 Z" fill="hsla(225,42%,30%,0.75)"/>
    <circle cx="170" cy="224" r="22" fill="hsla(195,35%,48%,0.9)"/>
  </g>
  <rect x="0" y="0" width="340" height="510" fill="url(#vignette)" opacity="0.35"/>
  <rect width="340" height="510" fill="url(#vignette)"/>
  <text x="20" y="488" fill="hsla(195,18%,92%,0.7)" font-family="Outfit, system-ui, sans-serif" font-size="11" font-weight="600" letter-spacing="0.06em">FROST LETTER</text>
  <text x="20" y="36" fill="hsla(195,25%,88%,0.35)" font-family="Outfit, system-ui, sans-serif" font-size="9" letter-spacing="0.12em">frost window letter romance</text>
</svg>