<?xml version="1.0" encoding="UTF-8"?>
<svg xmlns="http://www.w3.org/2000/svg" viewBox="0 0 340 510" width="340" height="510">
  <defs>
    <linearGradient id="sky" x1="0%" y1="0%" x2="0%" y2="100%">
      <stop offset="0%" stop-color="hsl(145,56%,42%)"/>
      <stop offset="45%" stop-color="hsl(187,48%,26%)"/>
      <stop offset="100%" stop-color="hsl(145,43%,16%)"/>
    </linearGradient>
    <radialGradient id="sun" cx="72%" cy="18%" r="45%">
      <stop offset="0%" stop-color="hsla(165,70%,72%,0.55)"/>
      <stop offset="100%" stop-color="transparent"/>
    </radialGradient>
    <linearGradient id="vignette" x1="50%" y1="50%" x2="50%" y2="100%">
      <stop offset="55%" stop-color="transparent"/>
      <stop offset="100%" stop-color="rgba(0,0,0,0.72)"/>
    </linearGradient>
    <filter id="blur"><feGaussianBlur stdDeviation="18"/></filter>
  </defs>
  <rect width="340" height="510" fill="url(#sky)"/>
  <rect width="340" height="510" fill="url(#sun)"/>
  <circle cx="13" cy="67" r="0.8" fill="white" opacity="0.25"/><circle cx="14" cy="188" r="1.4" fill="white" opacity="0.37"/><circle cx="15" cy="109" r="2" fill="white" opacity="0.49"/><circle cx="16" cy="30" r="0.8" fill="white" opacity="0.61"/><circle cx="17" cy="151" r="1.4" fill="white" opacity="0.73"/><circle cx="18" cy="72" r="2" fill="white" opacity="0.25"/><circle cx="19" cy="193" r="0.8" fill="white" opacity="0.37"/><circle cx="20" cy="114" r="1.4" fill="white" opacity="0.49"/><circle cx="21" cy="35" r="2" fill="white" opacity="0.61"/><circle cx="22" cy="156" r="0.8" fill="white" opacity="0.73"/><circle cx="23" cy="77" r="1.4" fill="white" opacity="0.25"/><circle cx="24" cy="198" r="2" fill="white" opacity="0.37"/><circle cx="25" cy="119" r="0.8" fill="white" opacity="0.49"/><circle cx="26" cy="40" r="1.4" fill="white" opacity="0.61"/><circle cx="27" cy="161" r="2" fill="white" opacity="0.73"/><circle cx="28" cy="82" r="0.8" fill="white" opacity="0.25"/><circle cx="29" cy="203" r="1.4" fill="white" opacity="0.37"/><circle cx="30" cy="124" r="2" fill="white" opacity="0.49"/>
  <circle cx="181" cy="101" r="56" fill="hsla(195,48%,42%,0.18)"/>
  <rect x="0" y="280" width="340" height="230" fill="hsla(145,38%,16%,0.35)" filter="url(#blur)" opacity="0.6"/>
  <ellipse cx="170" cy="141" rx="120" ry="90" fill="hsla(145,58%,42%,0.22)"/>
  
  <ellipse cx="170" cy="420" rx="200" ry="55" fill="hsla(145,48%,16%,0.55)"/>
  <g opacity="0.85">
    <ellipse cx="170" cy="360" rx="48" ry="12" fill="hsla(145,20%,8%,0.5)"/>
    <path d="M 151 360 L 170 221 L 189 360 Z" fill="hsla(175,48%,26%,0.75)"/>
    <circle cx="170" cy="201" r="22" fill="hsla(145,35%,42%,0.9)"/>
  </g>
  <rect x="0" y="0" width="340" height="510" fill="url(#vignette)" opacity="0.35"/>
  <rect width="340" height="510" fill="url(#vignette)"/>
  <text x="20" y="488" fill="hsla(145,18%,92%,0.7)" font-family="Outfit, system-ui, sans-serif" font-size="11" font-weight="600" letter-spacing="0.06em">GLASS GARDEN</text>
  <text x="20" y="36" fill="hsla(145,25%,88%,0.35)" font-family="Outfit, system-ui, sans-serif" font-size="9" letter-spacing="0.12em">crystal greenhouse fantasy flowers</text>
</svg>