<?xml version="1.0" encoding="UTF-8"?>
<svg xmlns="http://www.w3.org/2000/svg" viewBox="0 0 340 510" width="340" height="510">
  <defs>
    <linearGradient id="sky" x1="0%" y1="0%" x2="0%" y2="100%">
      <stop offset="0%" stop-color="hsl(182,70%,38%)"/>
      <stop offset="45%" stop-color="hsl(224,62%,22%)"/>
      <stop offset="100%" stop-color="hsl(182,57%,14%)"/>
    </linearGradient>
    <radialGradient id="sun" cx="72%" cy="18%" r="45%">
      <stop offset="0%" stop-color="hsla(202,70%,72%,0.55)"/>
      <stop offset="100%" stop-color="transparent"/>
    </radialGradient>
    <linearGradient id="vignette" x1="50%" y1="50%" x2="50%" y2="100%">
      <stop offset="55%" stop-color="transparent"/>
      <stop offset="100%" stop-color="rgba(0,0,0,0.72)"/>
    </linearGradient>
    <filter id="blur"><feGaussianBlur stdDeviation="18"/></filter>
  </defs>
  <rect width="340" height="510" fill="url(#sky)"/>
  <rect width="340" height="510" fill="url(#sun)"/>
  <circle cx="188" cy="62" r="0.8" fill="white" opacity="0.25"/><circle cx="34" cy="68" r="1.4" fill="white" opacity="0.37"/><circle cx="200" cy="74" r="2" fill="white" opacity="0.49"/><circle cx="46" cy="80" r="0.8" fill="white" opacity="0.61"/><circle cx="212" cy="86" r="1.4" fill="white" opacity="0.73"/><circle cx="58" cy="92" r="2" fill="white" opacity="0.25"/><circle cx="224" cy="98" r="0.8" fill="white" opacity="0.37"/><circle cx="70" cy="104" r="1.4" fill="white" opacity="0.49"/><circle cx="236" cy="110" r="2" fill="white" opacity="0.61"/><circle cx="82" cy="116" r="0.8" fill="white" opacity="0.73"/><circle cx="248" cy="122" r="1.4" fill="white" opacity="0.25"/><circle cx="94" cy="128" r="2" fill="white" opacity="0.37"/><circle cx="260" cy="134" r="0.8" fill="white" opacity="0.49"/><circle cx="106" cy="140" r="1.4" fill="white" opacity="0.61"/><circle cx="272" cy="146" r="2" fill="white" opacity="0.73"/><circle cx="118" cy="152" r="0.8" fill="white" opacity="0.25"/><circle cx="284" cy="158" r="1.4" fill="white" opacity="0.37"/><circle cx="130" cy="164" r="2" fill="white" opacity="0.49"/>
  <circle cx="66" cy="86" r="41" fill="hsla(232,62%,38%,0.18)"/>
  <rect x="0" y="280" width="340" height="230" fill="hsla(182,52%,14%,0.35)" filter="url(#blur)" opacity="0.6"/>
  <ellipse cx="170" cy="146" rx="120" ry="90" fill="hsla(182,72%,38%,0.22)"/>
  
  <ellipse cx="170" cy="420" rx="200" ry="55" fill="hsla(182,62%,14%,0.55)"/>
  <g opacity="0.85">
    <ellipse cx="170" cy="360" rx="48" ry="12" fill="hsla(182,20%,8%,0.5)"/>
    <path d="M 156 360 L 170 226 L 189 360 Z" fill="hsla(212,62%,22%,0.75)"/>
    <circle cx="170" cy="216" r="22" fill="hsla(182,35%,38%,0.9)"/>
  </g>
  <rect x="0" y="0" width="340" height="510" fill="url(#vignette)" opacity="0.35"/>
  <rect width="340" height="510" fill="url(#vignette)"/>
  <text x="20" y="488" fill="hsla(182,18%,92%,0.7)" font-family="Outfit, system-ui, sans-serif" font-size="11" font-weight="600" letter-spacing="0.06em">GRAVITY WALTZ</text>
  <text x="20" y="36" fill="hsla(182,25%,88%,0.35)" font-family="Outfit, system-ui, sans-serif" font-size="9" letter-spacing="0.12em">floating festival planet sci-fi</text>
</svg>