<?xml version="1.0" encoding="UTF-8"?>
<svg xmlns="http://www.w3.org/2000/svg" viewBox="0 0 340 510" width="340" height="510">
  <defs>
    <linearGradient id="sky" x1="0%" y1="0%" x2="0%" y2="100%">
      <stop offset="0%" stop-color="hsl(55,56%,42%)"/>
      <stop offset="45%" stop-color="hsl(97,48%,26%)"/>
      <stop offset="100%" stop-color="hsl(55,43%,16%)"/>
    </linearGradient>
    <radialGradient id="sun" cx="72%" cy="18%" r="45%">
      <stop offset="0%" stop-color="hsla(75,70%,72%,0.55)"/>
      <stop offset="100%" stop-color="transparent"/>
    </radialGradient>
    <linearGradient id="vignette" x1="50%" y1="50%" x2="50%" y2="100%">
      <stop offset="55%" stop-color="transparent"/>
      <stop offset="100%" stop-color="rgba(0,0,0,0.72)"/>
    </linearGradient>
    <filter id="blur"><feGaussianBlur stdDeviation="18"/></filter>
  </defs>
  <rect width="340" height="510" fill="url(#sky)"/>
  <rect width="340" height="510" fill="url(#sun)"/>
  <circle cx="213" cy="187" r="0.8" fill="white" opacity="0.25"/><circle cx="174" cy="68" r="1.4" fill="white" opacity="0.37"/><circle cx="135" cy="149" r="2" fill="white" opacity="0.49"/><circle cx="96" cy="30" r="0.8" fill="white" opacity="0.61"/><circle cx="57" cy="111" r="1.4" fill="white" opacity="0.73"/><circle cx="18" cy="192" r="2" fill="white" opacity="0.25"/><circle cx="299" cy="73" r="0.8" fill="white" opacity="0.37"/><circle cx="260" cy="154" r="1.4" fill="white" opacity="0.49"/><circle cx="221" cy="35" r="2" fill="white" opacity="0.61"/><circle cx="182" cy="116" r="0.8" fill="white" opacity="0.73"/><circle cx="143" cy="197" r="1.4" fill="white" opacity="0.25"/><circle cx="104" cy="78" r="2" fill="white" opacity="0.37"/><circle cx="65" cy="159" r="0.8" fill="white" opacity="0.49"/><circle cx="26" cy="40" r="1.4" fill="white" opacity="0.61"/><circle cx="307" cy="121" r="2" fill="white" opacity="0.73"/><circle cx="268" cy="202" r="0.8" fill="white" opacity="0.25"/><circle cx="229" cy="83" r="1.4" fill="white" opacity="0.37"/><circle cx="190" cy="164" r="2" fill="white" opacity="0.49"/>
  <circle cx="141" cy="161" r="41" fill="hsla(105,48%,42%,0.18)"/>
  <rect x="0" y="280" width="340" height="230" fill="hsla(55,38%,16%,0.35)" filter="url(#blur)" opacity="0.6"/>
  <ellipse cx="170" cy="181" rx="120" ry="90" fill="hsla(55,58%,42%,0.22)"/>
  
  <ellipse cx="170" cy="420" rx="200" ry="55" fill="hsla(55,48%,16%,0.55)"/>
  <g opacity="0.85">
    <ellipse cx="170" cy="360" rx="48" ry="12" fill="hsla(55,20%,8%,0.5)"/>
    <path d="M 151 360 L 170 221 L 179 360 Z" fill="hsla(85,48%,26%,0.75)"/>
    <circle cx="170" cy="211" r="22" fill="hsla(55,35%,42%,0.9)"/>
  </g>
  <rect x="0" y="0" width="340" height="510" fill="url(#vignette)" opacity="0.35"/>
  <rect width="340" height="510" fill="url(#vignette)"/>
  <text x="20" y="488" fill="hsla(55,18%,92%,0.7)" font-family="Outfit, system-ui, sans-serif" font-size="11" font-weight="600" letter-spacing="0.06em">HALO MARKET</text>
  <text x="20" y="36" fill="hsla(55,25%,88%,0.35)" font-family="Outfit, system-ui, sans-serif" font-size="9" letter-spacing="0.12em">fantasy market glowing halos</text>
</svg>