<?xml version="1.0" encoding="UTF-8"?>
<svg xmlns="http://www.w3.org/2000/svg" viewBox="0 0 340 510" width="340" height="510">
  <defs>
    <linearGradient id="sky" x1="0%" y1="0%" x2="0%" y2="100%">
      <stop offset="0%" stop-color="hsl(8,66%,44%)"/>
      <stop offset="45%" stop-color="hsl(50,58%,28%)"/>
      <stop offset="100%" stop-color="hsl(8,53%,16%)"/>
    </linearGradient>
    <radialGradient id="sun" cx="72%" cy="18%" r="45%">
      <stop offset="0%" stop-color="hsla(28,70%,72%,0.55)"/>
      <stop offset="100%" stop-color="transparent"/>
    </radialGradient>
    <linearGradient id="vignette" x1="50%" y1="50%" x2="50%" y2="100%">
      <stop offset="55%" stop-color="transparent"/>
      <stop offset="100%" stop-color="rgba(0,0,0,0.72)"/>
    </linearGradient>
    <filter id="blur"><feGaussianBlur stdDeviation="18"/></filter>
  </defs>
  <rect width="340" height="510" fill="url(#sky)"/>
  <rect width="340" height="510" fill="url(#sun)"/>
  <circle cx="317" cy="123" r="0.8" fill="white" opacity="0.25"/><circle cx="206" cy="52" r="1.4" fill="white" opacity="0.37"/><circle cx="95" cy="181" r="2" fill="white" opacity="0.49"/><circle cx="304" cy="110" r="0.8" fill="white" opacity="0.61"/><circle cx="193" cy="39" r="1.4" fill="white" opacity="0.73"/><circle cx="82" cy="168" r="2" fill="white" opacity="0.25"/><circle cx="291" cy="97" r="0.8" fill="white" opacity="0.37"/><circle cx="180" cy="26" r="1.4" fill="white" opacity="0.49"/><circle cx="69" cy="155" r="2" fill="white" opacity="0.61"/><circle cx="278" cy="84" r="0.8" fill="white" opacity="0.73"/><circle cx="167" cy="213" r="1.4" fill="white" opacity="0.25"/><circle cx="56" cy="142" r="2" fill="white" opacity="0.37"/><circle cx="265" cy="71" r="0.8" fill="white" opacity="0.49"/><circle cx="154" cy="200" r="1.4" fill="white" opacity="0.61"/><circle cx="43" cy="129" r="2" fill="white" opacity="0.73"/><circle cx="252" cy="58" r="0.8" fill="white" opacity="0.25"/><circle cx="141" cy="187" r="1.4" fill="white" opacity="0.37"/><circle cx="30" cy="116" r="2" fill="white" opacity="0.49"/>
  <circle cx="189" cy="109" r="39" fill="hsla(58,58%,44%,0.18)"/>
  <rect x="0" y="280" width="340" height="230" fill="hsla(8,48%,16%,0.35)" filter="url(#blur)" opacity="0.6"/>
  <ellipse cx="170" cy="189" rx="120" ry="90" fill="hsla(8,68%,44%,0.22)"/>
  
  <ellipse cx="170" cy="420" rx="200" ry="55" fill="hsla(8,58%,16%,0.55)"/>
  <g opacity="0.85">
    <ellipse cx="170" cy="360" rx="48" ry="12" fill="hsla(8,20%,8%,0.5)"/>
    <path d="M 159 360 L 170 229 L 181 360 Z" fill="hsla(38,58%,28%,0.75)"/>
    <circle cx="170" cy="209" r="22" fill="hsla(8,35%,44%,0.9)"/>
  </g>
  <rect x="0" y="0" width="340" height="510" fill="url(#vignette)" opacity="0.35"/>
  <rect width="340" height="510" fill="url(#vignette)"/>
  <text x="20" y="488" fill="hsla(8,18%,92%,0.7)" font-family="Outfit, system-ui, sans-serif" font-size="11" font-weight="600" letter-spacing="0.06em">IRON BLOOM</text>
  <text x="20" y="36" fill="hsla(8,25%,88%,0.35)" font-family="Outfit, system-ui, sans-serif" font-size="9" letter-spacing="0.12em">mecha warrior ruins sunset</text>
</svg>