<?xml version="1.0" encoding="UTF-8"?>
<svg xmlns="http://www.w3.org/2000/svg" viewBox="0 0 340 510" width="340" height="510">
  <defs>
    <linearGradient id="sky" x1="0%" y1="0%" x2="0%" y2="100%">
      <stop offset="0%" stop-color="hsl(40,48%,34%)"/>
      <stop offset="45%" stop-color="hsl(82,40%,20%)"/>
      <stop offset="100%" stop-color="hsl(40,35%,12%)"/>
    </linearGradient>
    <radialGradient id="sun" cx="72%" cy="18%" r="45%">
      <stop offset="0%" stop-color="hsla(60,70%,72%,0.55)"/>
      <stop offset="100%" stop-color="transparent"/>
    </radialGradient>
    <linearGradient id="vignette" x1="50%" y1="50%" x2="50%" y2="100%">
      <stop offset="55%" stop-color="transparent"/>
      <stop offset="100%" stop-color="rgba(0,0,0,0.72)"/>
    </linearGradient>
    <filter id="blur"><feGaussianBlur stdDeviation="18"/></filter>
  </defs>
  <rect width="340" height="510" fill="url(#sky)"/>
  <rect width="340" height="510" fill="url(#sun)"/>
  <circle cx="182" cy="168" r="0.8" fill="white" opacity="0.25"/><circle cx="26" cy="132" r="1.4" fill="white" opacity="0.37"/><circle cx="190" cy="96" r="2" fill="white" opacity="0.49"/><circle cx="34" cy="60" r="0.8" fill="white" opacity="0.61"/><circle cx="198" cy="24" r="1.4" fill="white" opacity="0.73"/><circle cx="42" cy="188" r="2" fill="white" opacity="0.25"/><circle cx="206" cy="152" r="0.8" fill="white" opacity="0.37"/><circle cx="50" cy="116" r="1.4" fill="white" opacity="0.49"/><circle cx="214" cy="80" r="2" fill="white" opacity="0.61"/><circle cx="58" cy="44" r="0.8" fill="white" opacity="0.73"/><circle cx="222" cy="208" r="1.4" fill="white" opacity="0.25"/><circle cx="66" cy="172" r="2" fill="white" opacity="0.37"/><circle cx="230" cy="136" r="0.8" fill="white" opacity="0.49"/><circle cx="74" cy="100" r="1.4" fill="white" opacity="0.61"/><circle cx="238" cy="64" r="2" fill="white" opacity="0.73"/><circle cx="82" cy="28" r="0.8" fill="white" opacity="0.25"/><circle cx="246" cy="192" r="1.4" fill="white" opacity="0.37"/><circle cx="90" cy="156" r="2" fill="white" opacity="0.49"/>
  <circle cx="224" cy="144" r="49" fill="hsla(90,40%,34%,0.18)"/>
  <rect x="0" y="280" width="340" height="230" fill="hsla(40,30%,12%,0.35)" filter="url(#blur)" opacity="0.6"/>
  <ellipse cx="170" cy="144" rx="120" ry="90" fill="hsla(40,50%,34%,0.22)"/>
  
  <ellipse cx="170" cy="420" rx="200" ry="55" fill="hsla(40,40%,12%,0.55)"/>
  <g opacity="0.85">
    <ellipse cx="170" cy="360" rx="48" ry="12" fill="hsla(40,20%,8%,0.5)"/>
    <path d="M 154 360 L 170 224 L 181 360 Z" fill="hsla(70,40%,20%,0.75)"/>
    <circle cx="170" cy="224" r="22" fill="hsla(40,35%,34%,0.9)"/>
  </g>
  <rect x="0" y="0" width="340" height="510" fill="url(#vignette)" opacity="0.35"/>
  <rect width="340" height="510" fill="url(#vignette)"/>
  <text x="20" y="488" fill="hsla(40,18%,92%,0.7)" font-family="Outfit, system-ui, sans-serif" font-size="11" font-weight="600" letter-spacing="0.06em">IVORY LABYRINTH</text>
  <text x="20" y="36" fill="hsla(40,25%,88%,0.35)" font-family="Outfit, system-ui, sans-serif" font-size="9" letter-spacing="0.12em">ivory maze mystery corridors</text>
</svg>