<?xml version="1.0" encoding="UTF-8"?>
<svg xmlns="http://www.w3.org/2000/svg" viewBox="0 0 340 510" width="340" height="510">
  <defs>
    <linearGradient id="sky" x1="0%" y1="0%" x2="0%" y2="100%">
      <stop offset="0%" stop-color="hsl(140,66%,44%)"/>
      <stop offset="45%" stop-color="hsl(182,58%,28%)"/>
      <stop offset="100%" stop-color="hsl(140,53%,16%)"/>
    </linearGradient>
    <radialGradient id="sun" cx="72%" cy="18%" r="45%">
      <stop offset="0%" stop-color="hsla(160,70%,72%,0.55)"/>
      <stop offset="100%" stop-color="transparent"/>
    </radialGradient>
    <linearGradient id="vignette" x1="50%" y1="50%" x2="50%" y2="100%">
      <stop offset="55%" stop-color="transparent"/>
      <stop offset="100%" stop-color="rgba(0,0,0,0.72)"/>
    </linearGradient>
    <filter id="blur"><feGaussianBlur stdDeviation="18"/></filter>
  </defs>
  <rect width="340" height="510" fill="url(#sky)"/>
  <rect width="340" height="510" fill="url(#sun)"/>
  <circle cx="116" cy="214" r="0.8" fill="white" opacity="0.25"/><circle cx="258" cy="156" r="1.4" fill="white" opacity="0.37"/><circle cx="80" cy="98" r="2" fill="white" opacity="0.49"/><circle cx="222" cy="40" r="0.8" fill="white" opacity="0.61"/><circle cx="44" cy="182" r="1.4" fill="white" opacity="0.73"/><circle cx="186" cy="124" r="2" fill="white" opacity="0.25"/><circle cx="328" cy="66" r="0.8" fill="white" opacity="0.37"/><circle cx="150" cy="208" r="1.4" fill="white" opacity="0.49"/><circle cx="292" cy="150" r="2" fill="white" opacity="0.61"/><circle cx="114" cy="92" r="0.8" fill="white" opacity="0.73"/><circle cx="256" cy="34" r="1.4" fill="white" opacity="0.25"/><circle cx="78" cy="176" r="2" fill="white" opacity="0.37"/><circle cx="220" cy="118" r="0.8" fill="white" opacity="0.49"/><circle cx="42" cy="60" r="1.4" fill="white" opacity="0.61"/><circle cx="184" cy="202" r="2" fill="white" opacity="0.73"/><circle cx="326" cy="144" r="0.8" fill="white" opacity="0.25"/><circle cx="148" cy="86" r="1.4" fill="white" opacity="0.37"/><circle cx="290" cy="28" r="2" fill="white" opacity="0.49"/>
  <circle cx="202" cy="122" r="52" fill="hsla(190,58%,44%,0.18)"/>
  <rect x="0" y="280" width="340" height="230" fill="hsla(140,48%,16%,0.35)" filter="url(#blur)" opacity="0.6"/>
  <ellipse cx="170" cy="202" rx="120" ry="90" fill="hsla(140,68%,44%,0.22)"/>
  
  <ellipse cx="170" cy="420" rx="200" ry="55" fill="hsla(140,58%,16%,0.55)"/>
  <g opacity="0.85">
    <ellipse cx="170" cy="360" rx="48" ry="12" fill="hsla(140,20%,8%,0.5)"/>
    <path d="M 152 360 L 170 242 L 183 360 Z" fill="hsla(170,58%,28%,0.75)"/>
    <circle cx="170" cy="222" r="22" fill="hsla(140,35%,44%,0.9)"/>
  </g>
  <rect x="0" y="0" width="340" height="510" fill="url(#vignette)" opacity="0.35"/>
  <rect width="340" height="510" fill="url(#vignette)"/>
  <text x="20" y="488" fill="hsla(140,18%,92%,0.7)" font-family="Outfit, system-ui, sans-serif" font-size="11" font-weight="600" letter-spacing="0.06em">JADE REBELLION</text>
  <text x="20" y="36" fill="hsla(140,25%,88%,0.35)" font-family="Outfit, system-ui, sans-serif" font-size="9" letter-spacing="0.12em">jade warriors awakening action</text>
</svg>