<?xml version="1.0" encoding="UTF-8"?>
<svg xmlns="http://www.w3.org/2000/svg" viewBox="0 0 340 510" width="340" height="510">
  <defs>
    <linearGradient id="sky" x1="0%" y1="0%" x2="0%" y2="100%">
      <stop offset="0%" stop-color="hsl(32,43%,36%)"/>
      <stop offset="45%" stop-color="hsl(74,35%,24%)"/>
      <stop offset="100%" stop-color="hsl(32,30%,14%)"/>
    </linearGradient>
    <radialGradient id="sun" cx="72%" cy="18%" r="45%">
      <stop offset="0%" stop-color="hsla(52,70%,72%,0.55)"/>
      <stop offset="100%" stop-color="transparent"/>
    </radialGradient>
    <linearGradient id="vignette" x1="50%" y1="50%" x2="50%" y2="100%">
      <stop offset="55%" stop-color="transparent"/>
      <stop offset="100%" stop-color="rgba(0,0,0,0.72)"/>
    </linearGradient>
    <filter id="blur"><feGaussianBlur stdDeviation="18"/></filter>
  </defs>
  <rect width="340" height="510" fill="url(#sky)"/>
  <rect width="340" height="510" fill="url(#sun)"/>
  <circle cx="15" cy="205" r="0.8" fill="white" opacity="0.25"/><circle cx="230" cy="60" r="1.4" fill="white" opacity="0.37"/><circle cx="125" cy="115" r="2" fill="white" opacity="0.49"/><circle cx="20" cy="170" r="0.8" fill="white" opacity="0.61"/><circle cx="235" cy="25" r="1.4" fill="white" opacity="0.73"/><circle cx="130" cy="80" r="2" fill="white" opacity="0.25"/><circle cx="25" cy="135" r="0.8" fill="white" opacity="0.37"/><circle cx="240" cy="190" r="1.4" fill="white" opacity="0.49"/><circle cx="135" cy="45" r="2" fill="white" opacity="0.61"/><circle cx="30" cy="100" r="0.8" fill="white" opacity="0.73"/><circle cx="245" cy="155" r="1.4" fill="white" opacity="0.25"/><circle cx="140" cy="210" r="2" fill="white" opacity="0.37"/><circle cx="35" cy="65" r="0.8" fill="white" opacity="0.49"/><circle cx="250" cy="120" r="1.4" fill="white" opacity="0.61"/><circle cx="145" cy="175" r="2" fill="white" opacity="0.73"/><circle cx="40" cy="30" r="0.8" fill="white" opacity="0.25"/><circle cx="255" cy="85" r="1.4" fill="white" opacity="0.37"/><circle cx="150" cy="140" r="2" fill="white" opacity="0.49"/>
  <circle cx="115" cy="135" r="40" fill="hsla(82,35%,36%,0.18)"/>
  <rect x="0" y="280" width="340" height="230" fill="hsla(32,25%,14%,0.35)" filter="url(#blur)" opacity="0.6"/>
  <ellipse cx="170" cy="195" rx="120" ry="90" fill="hsla(32,45%,36%,0.22)"/>
  
  <ellipse cx="170" cy="420" rx="200" ry="55" fill="hsla(32,35%,14%,0.55)"/>
  <g opacity="0.85">
    <ellipse cx="170" cy="360" rx="48" ry="12" fill="hsla(32,20%,8%,0.5)"/>
    <path d="M 165 360 L 170 235 L 180 360 Z" fill="hsla(62,35%,24%,0.75)"/>
    <circle cx="170" cy="225" r="22" fill="hsla(32,35%,36%,0.9)"/>
  </g>
  <rect x="0" y="0" width="340" height="510" fill="url(#vignette)" opacity="0.35"/>
  <rect width="340" height="510" fill="url(#vignette)"/>
  <text x="20" y="488" fill="hsla(32,18%,92%,0.7)" font-family="Outfit, system-ui, sans-serif" font-size="11" font-weight="600" letter-spacing="0.06em">THE LAST ORCHESTRA</text>
  <text x="20" y="36" fill="hsla(32,25%,88%,0.35)" font-family="Outfit, system-ui, sans-serif" font-size="9" letter-spacing="0.12em">empty concert hall golden light</text>
</svg>