<?xml version="1.0" encoding="UTF-8"?>
<svg xmlns="http://www.w3.org/2000/svg" viewBox="0 0 340 510" width="340" height="510">
  <defs>
    <linearGradient id="sky" x1="0%" y1="0%" x2="0%" y2="100%">
      <stop offset="0%" stop-color="hsl(54,70%,38%)"/>
      <stop offset="45%" stop-color="hsl(96,62%,22%)"/>
      <stop offset="100%" stop-color="hsl(54,57%,14%)"/>
    </linearGradient>
    <radialGradient id="sun" cx="72%" cy="18%" r="45%">
      <stop offset="0%" stop-color="hsla(74,70%,72%,0.55)"/>
      <stop offset="100%" stop-color="transparent"/>
    </radialGradient>
    <linearGradient id="vignette" x1="50%" y1="50%" x2="50%" y2="100%">
      <stop offset="55%" stop-color="transparent"/>
      <stop offset="100%" stop-color="rgba(0,0,0,0.72)"/>
    </linearGradient>
    <filter id="blur"><feGaussianBlur stdDeviation="18"/></filter>
  </defs>
  <rect width="340" height="510" fill="url(#sky)"/>
  <rect width="340" height="510" fill="url(#sun)"/>
  <circle cx="230" cy="40" r="0.8" fill="white" opacity="0.25"/><circle cx="90" cy="100" r="1.4" fill="white" opacity="0.37"/><circle cx="270" cy="160" r="2" fill="white" opacity="0.49"/><circle cx="130" cy="20" r="0.8" fill="white" opacity="0.61"/><circle cx="310" cy="80" r="1.4" fill="white" opacity="0.73"/><circle cx="170" cy="140" r="2" fill="white" opacity="0.25"/><circle cx="30" cy="200" r="0.8" fill="white" opacity="0.37"/><circle cx="210" cy="60" r="1.4" fill="white" opacity="0.49"/><circle cx="70" cy="120" r="2" fill="white" opacity="0.61"/><circle cx="250" cy="180" r="0.8" fill="white" opacity="0.73"/><circle cx="110" cy="40" r="1.4" fill="white" opacity="0.25"/><circle cx="290" cy="100" r="2" fill="white" opacity="0.37"/><circle cx="150" cy="160" r="0.8" fill="white" opacity="0.49"/><circle cx="10" cy="20" r="1.4" fill="white" opacity="0.61"/><circle cx="190" cy="80" r="2" fill="white" opacity="0.73"/><circle cx="50" cy="140" r="0.8" fill="white" opacity="0.25"/><circle cx="230" cy="200" r="1.4" fill="white" opacity="0.37"/><circle cx="90" cy="60" r="2" fill="white" opacity="0.49"/>
  <circle cx="120" cy="140" r="45" fill="hsla(104,62%,38%,0.18)"/>
  <rect x="0" y="280" width="340" height="230" fill="hsla(54,52%,14%,0.35)" filter="url(#blur)" opacity="0.6"/>
  <ellipse cx="170" cy="160" rx="120" ry="90" fill="hsla(54,72%,38%,0.22)"/>
  
  <ellipse cx="170" cy="420" rx="200" ry="55" fill="hsla(54,62%,14%,0.55)"/>
  <g opacity="0.85">
    <ellipse cx="170" cy="360" rx="48" ry="12" fill="hsla(54,20%,8%,0.5)"/>
    <path d="M 150 360 L 170 240 L 190 360 Z" fill="hsla(84,62%,22%,0.75)"/>
    <circle cx="170" cy="200" r="22" fill="hsla(54,35%,38%,0.9)"/>
  </g>
  <rect x="0" y="0" width="340" height="510" fill="url(#vignette)" opacity="0.35"/>
  <rect width="340" height="510" fill="url(#vignette)"/>
  <text x="20" y="488" fill="hsla(54,18%,92%,0.7)" font-family="Outfit, system-ui, sans-serif" font-size="11" font-weight="600" letter-spacing="0.06em">LUMEN ARCHIVE</text>
  <text x="20" y="36" fill="hsla(54,25%,88%,0.35)" font-family="Outfit, system-ui, sans-serif" font-size="9" letter-spacing="0.12em">light archive sci-fi library</text>
</svg>