<?xml version="1.0" encoding="UTF-8"?>
<svg xmlns="http://www.w3.org/2000/svg" viewBox="0 0 340 510" width="340" height="510">
  <defs>
    <linearGradient id="sky" x1="0%" y1="0%" x2="0%" y2="100%">
      <stop offset="0%" stop-color="hsl(235,48%,34%)"/>
      <stop offset="45%" stop-color="hsl(277,40%,20%)"/>
      <stop offset="100%" stop-color="hsl(235,35%,12%)"/>
    </linearGradient>
    <radialGradient id="sun" cx="72%" cy="18%" r="45%">
      <stop offset="0%" stop-color="hsla(255,70%,72%,0.55)"/>
      <stop offset="100%" stop-color="transparent"/>
    </radialGradient>
    <linearGradient id="vignette" x1="50%" y1="50%" x2="50%" y2="100%">
      <stop offset="55%" stop-color="transparent"/>
      <stop offset="100%" stop-color="rgba(0,0,0,0.72)"/>
    </linearGradient>
    <filter id="blur"><feGaussianBlur stdDeviation="18"/></filter>
  </defs>
  <rect width="340" height="510" fill="url(#sky)"/>
  <rect width="340" height="510" fill="url(#sun)"/>
  <circle cx="23" cy="37" r="0.8" fill="white" opacity="0.25"/><circle cx="134" cy="68" r="1.4" fill="white" opacity="0.37"/><circle cx="245" cy="99" r="2" fill="white" opacity="0.49"/><circle cx="36" cy="130" r="0.8" fill="white" opacity="0.61"/><circle cx="147" cy="161" r="1.4" fill="white" opacity="0.73"/><circle cx="258" cy="192" r="2" fill="white" opacity="0.25"/><circle cx="49" cy="23" r="0.8" fill="white" opacity="0.37"/><circle cx="160" cy="54" r="1.4" fill="white" opacity="0.49"/><circle cx="271" cy="85" r="2" fill="white" opacity="0.61"/><circle cx="62" cy="116" r="0.8" fill="white" opacity="0.73"/><circle cx="173" cy="147" r="1.4" fill="white" opacity="0.25"/><circle cx="284" cy="178" r="2" fill="white" opacity="0.37"/><circle cx="75" cy="209" r="0.8" fill="white" opacity="0.49"/><circle cx="186" cy="40" r="1.4" fill="white" opacity="0.61"/><circle cx="297" cy="71" r="2" fill="white" opacity="0.73"/><circle cx="88" cy="102" r="0.8" fill="white" opacity="0.25"/><circle cx="199" cy="133" r="1.4" fill="white" opacity="0.37"/><circle cx="310" cy="164" r="2" fill="white" opacity="0.49"/>
  <circle cx="91" cy="111" r="41" fill="hsla(285,40%,34%,0.18)"/>
  <rect x="0" y="280" width="340" height="230" fill="hsla(235,30%,12%,0.35)" filter="url(#blur)" opacity="0.6"/>
  <ellipse cx="170" cy="171" rx="120" ry="90" fill="hsla(235,50%,34%,0.22)"/>
  
  <ellipse cx="170" cy="420" rx="200" ry="55" fill="hsla(235,40%,12%,0.55)"/>
  <g opacity="0.85">
    <ellipse cx="170" cy="360" rx="48" ry="12" fill="hsla(235,20%,8%,0.5)"/>
    <path d="M 161 360 L 170 251 L 179 360 Z" fill="hsla(265,40%,20%,0.75)"/>
    <circle cx="170" cy="211" r="22" fill="hsla(235,35%,34%,0.9)"/>
  </g>
  <rect x="0" y="0" width="340" height="510" fill="url(#vignette)" opacity="0.35"/>
  <rect width="340" height="510" fill="url(#vignette)"/>
  <text x="20" y="488" fill="hsla(235,18%,92%,0.7)" font-family="Outfit, system-ui, sans-serif" font-size="11" font-weight="600" letter-spacing="0.06em">LUNAR CARTOGRAPHER</text>
  <text x="20" y="36" fill="hsla(235,25%,88%,0.35)" font-family="Outfit, system-ui, sans-serif" font-size="9" letter-spacing="0.12em">girl mapping moon surface mystery</text>
</svg>