<?xml version="1.0" encoding="UTF-8"?>
<svg xmlns="http://www.w3.org/2000/svg" viewBox="0 0 340 510" width="340" height="510">
  <defs>
    <linearGradient id="sky" x1="0%" y1="0%" x2="0%" y2="100%">
      <stop offset="0%" stop-color="hsl(250,36%,28%)"/>
      <stop offset="45%" stop-color="hsl(292,28%,18%)"/>
      <stop offset="100%" stop-color="hsl(250,23%,10%)"/>
    </linearGradient>
    <radialGradient id="sun" cx="72%" cy="18%" r="45%">
      <stop offset="0%" stop-color="hsla(270,70%,72%,0.55)"/>
      <stop offset="100%" stop-color="transparent"/>
    </radialGradient>
    <linearGradient id="vignette" x1="50%" y1="50%" x2="50%" y2="100%">
      <stop offset="55%" stop-color="transparent"/>
      <stop offset="100%" stop-color="rgba(0,0,0,0.72)"/>
    </linearGradient>
    <filter id="blur"><feGaussianBlur stdDeviation="18"/></filter>
  </defs>
  <rect width="340" height="510" fill="url(#sky)"/>
  <rect width="340" height="510" fill="url(#sun)"/>
  <circle cx="247" cy="53" r="0.8" fill="white" opacity="0.25"/><circle cx="326" cy="172" r="1.4" fill="white" opacity="0.37"/><circle cx="85" cy="91" r="2" fill="white" opacity="0.49"/><circle cx="164" cy="210" r="0.8" fill="white" opacity="0.61"/><circle cx="243" cy="129" r="1.4" fill="white" opacity="0.73"/><circle cx="322" cy="48" r="2" fill="white" opacity="0.25"/><circle cx="81" cy="167" r="0.8" fill="white" opacity="0.37"/><circle cx="160" cy="86" r="1.4" fill="white" opacity="0.49"/><circle cx="239" cy="205" r="2" fill="white" opacity="0.61"/><circle cx="318" cy="124" r="0.8" fill="white" opacity="0.73"/><circle cx="77" cy="43" r="1.4" fill="white" opacity="0.25"/><circle cx="156" cy="162" r="2" fill="white" opacity="0.37"/><circle cx="235" cy="81" r="0.8" fill="white" opacity="0.49"/><circle cx="314" cy="200" r="1.4" fill="white" opacity="0.61"/><circle cx="73" cy="119" r="2" fill="white" opacity="0.73"/><circle cx="152" cy="38" r="0.8" fill="white" opacity="0.25"/><circle cx="231" cy="157" r="1.4" fill="white" opacity="0.37"/><circle cx="310" cy="76" r="2" fill="white" opacity="0.49"/>
  <circle cx="179" cy="99" r="54" fill="hsla(300,28%,28%,0.18)"/>
  <rect x="0" y="280" width="340" height="230" fill="hsla(250,18%,10%,0.35)" filter="url(#blur)" opacity="0.6"/>
  <ellipse cx="170" cy="219" rx="120" ry="90" fill="hsla(250,38%,28%,0.22)"/>
  <line x1="19" y1="0" x2="15" y2="22" stroke="hsla(250,55%,70%,0.18)" stroke-width="1.2"/><line x1="33" y1="19" x2="29" y2="41" stroke="hsla(250,55%,70%,0.18)" stroke-width="1.2"/><line x1="47" y1="38" x2="43" y2="60" stroke="hsla(250,55%,70%,0.18)" stroke-width="1.2"/><line x1="61" y1="57" x2="57" y2="79" stroke="hsla(250,55%,70%,0.18)" stroke-width="1.2"/><line x1="75" y1="76" x2="71" y2="98" stroke="hsla(250,55%,70%,0.18)" stroke-width="1.2"/><line x1="89" y1="95" x2="85" y2="117" stroke="hsla(250,55%,70%,0.18)" stroke-width="1.2"/><line x1="103" y1="114" x2="99" y2="136" stroke="hsla(250,55%,70%,0.18)" stroke-width="1.2"/><line x1="117" y1="133" x2="113" y2="155" stroke="hsla(250,55%,70%,0.18)" stroke-width="1.2"/><line x1="131" y1="152" x2="127" y2="174" stroke="hsla(250,55%,70%,0.18)" stroke-width="1.2"/><line x1="145" y1="171" x2="141" y2="193" stroke="hsla(250,55%,70%,0.18)" stroke-width="1.2"/><line x1="159" y1="190" x2="155" y2="212" stroke="hsla(250,55%,70%,0.18)" stroke-width="1.2"/><line x1="173" y1="209" x2="169" y2="231" stroke="hsla(250,55%,70%,0.18)" stroke-width="1.2"/><line x1="187" y1="228" x2="183" y2="250" stroke="hsla(250,55%,70%,0.18)" stroke-width="1.2"/><line x1="201" y1="247" x2="197" y2="269" stroke="hsla(250,55%,70%,0.18)" stroke-width="1.2"/><line x1="215" y1="266" x2="211" y2="288" stroke="hsla(250,55%,70%,0.18)" stroke-width="1.2"/><line x1="229" y1="285" x2="225" y2="307" stroke="hsla(250,55%,70%,0.18)" stroke-width="1.2"/><line x1="243" y1="304" x2="239" y2="326" stroke="hsla(250,55%,70%,0.18)" stroke-width="1.2"/><line x1="257" y1="323" x2="253" y2="345" stroke="hsla(250,55%,70%,0.18)" stroke-width="1.2"/><line x1="271" y1="342" x2="267" y2="364" stroke="hsla(250,55%,70%,0.18)" stroke-width="1.2"/><line x1="285" y1="361" x2="281" y2="383" stroke="hsla(250,55%,70%,0.18)" stroke-width="1.2"/><line x1="299" y1="380" x2="295" y2="402" stroke="hsla(250,55%,70%,0.18)" stroke-width="1.2"/><line x1="313" y1="399" x2="309" y2="421" stroke="hsla(250,55%,70%,0.18)" stroke-width="1.2"/><line x1="327" y1="18" x2="323" y2="40" stroke="hsla(250,55%,70%,0.18)" stroke-width="1.2"/><line x1="1" y1="37" x2="-3" y2="59" stroke="hsla(250,55%,70%,0.18)" stroke-width="1.2"/>
  <ellipse cx="170" cy="420" rx="200" ry="55" fill="hsla(250,28%,10%,0.55)"/>
  <g opacity="0.85">
    <ellipse cx="170" cy="360" rx="48" ry="12" fill="hsla(250,20%,8%,0.5)"/>
    <path d="M 169 360 L 170 259 L 176 360 Z" fill="hsla(280,28%,18%,0.75)"/>
    <circle cx="170" cy="229" r="22" fill="hsla(250,35%,28%,0.9)"/>
  </g>
  <rect x="0" y="0" width="340" height="510" fill="url(#vignette)" opacity="0.35"/>
  <rect width="340" height="510" fill="url(#vignette)"/>
  <text x="20" y="488" fill="hsla(250,18%,92%,0.7)" font-family="Outfit, system-ui, sans-serif" font-size="11" font-weight="600" letter-spacing="0.06em">MIDNIGHT EXPRESS</text>
  <text x="20" y="36" fill="hsla(250,25%,88%,0.35)" font-family="Outfit, system-ui, sans-serif" font-size="9" letter-spacing="0.12em">midnight train thriller fog</text>
</svg>