<?xml version="1.0" encoding="UTF-8"?>
<svg xmlns="http://www.w3.org/2000/svg" viewBox="0 0 340 510" width="340" height="510">
  <defs>
    <linearGradient id="sky" x1="0%" y1="0%" x2="0%" y2="100%">
      <stop offset="0%" stop-color="hsl(185,70%,38%)"/>
      <stop offset="45%" stop-color="hsl(227,62%,22%)"/>
      <stop offset="100%" stop-color="hsl(185,57%,14%)"/>
    </linearGradient>
    <radialGradient id="sun" cx="72%" cy="18%" r="45%">
      <stop offset="0%" stop-color="hsla(205,70%,72%,0.55)"/>
      <stop offset="100%" stop-color="transparent"/>
    </radialGradient>
    <linearGradient id="vignette" x1="50%" y1="50%" x2="50%" y2="100%">
      <stop offset="55%" stop-color="transparent"/>
      <stop offset="100%" stop-color="rgba(0,0,0,0.72)"/>
    </linearGradient>
    <filter id="blur"><feGaussianBlur stdDeviation="18"/></filter>
  </defs>
  <rect width="340" height="510" fill="url(#sky)"/>
  <rect width="340" height="510" fill="url(#sun)"/>
  <circle cx="219" cy="201" r="0.8" fill="white" opacity="0.25"/><circle cx="182" cy="84" r="1.4" fill="white" opacity="0.37"/><circle cx="145" cy="167" r="2" fill="white" opacity="0.49"/><circle cx="108" cy="50" r="0.8" fill="white" opacity="0.61"/><circle cx="71" cy="133" r="1.4" fill="white" opacity="0.73"/><circle cx="34" cy="216" r="2" fill="white" opacity="0.25"/><circle cx="317" cy="99" r="0.8" fill="white" opacity="0.37"/><circle cx="280" cy="182" r="1.4" fill="white" opacity="0.49"/><circle cx="243" cy="65" r="2" fill="white" opacity="0.61"/><circle cx="206" cy="148" r="0.8" fill="white" opacity="0.73"/><circle cx="169" cy="31" r="1.4" fill="white" opacity="0.25"/><circle cx="132" cy="114" r="2" fill="white" opacity="0.37"/><circle cx="95" cy="197" r="0.8" fill="white" opacity="0.49"/><circle cx="58" cy="80" r="1.4" fill="white" opacity="0.61"/><circle cx="21" cy="163" r="2" fill="white" opacity="0.73"/><circle cx="304" cy="46" r="0.8" fill="white" opacity="0.25"/><circle cx="267" cy="129" r="1.4" fill="white" opacity="0.37"/><circle cx="230" cy="212" r="2" fill="white" opacity="0.49"/>
  <circle cx="143" cy="163" r="43" fill="hsla(235,62%,38%,0.18)"/>
  <rect x="0" y="280" width="340" height="230" fill="hsla(185,52%,14%,0.35)" filter="url(#blur)" opacity="0.6"/>
  <ellipse cx="170" cy="183" rx="120" ry="90" fill="hsla(185,72%,38%,0.22)"/>
  <line x1="3" y1="0" x2="-1" y2="22" stroke="hsla(185,55%,70%,0.18)" stroke-width="1.2"/><line x1="17" y1="19" x2="13" y2="41" stroke="hsla(185,55%,70%,0.18)" stroke-width="1.2"/><line x1="31" y1="38" x2="27" y2="60" stroke="hsla(185,55%,70%,0.18)" stroke-width="1.2"/><line x1="45" y1="57" x2="41" y2="79" stroke="hsla(185,55%,70%,0.18)" stroke-width="1.2"/><line x1="59" y1="76" x2="55" y2="98" stroke="hsla(185,55%,70%,0.18)" stroke-width="1.2"/><line x1="73" y1="95" x2="69" y2="117" stroke="hsla(185,55%,70%,0.18)" stroke-width="1.2"/><line x1="87" y1="114" x2="83" y2="136" stroke="hsla(185,55%,70%,0.18)" stroke-width="1.2"/><line x1="101" y1="133" x2="97" y2="155" stroke="hsla(185,55%,70%,0.18)" stroke-width="1.2"/><line x1="115" y1="152" x2="111" y2="174" stroke="hsla(185,55%,70%,0.18)" stroke-width="1.2"/><line x1="129" y1="171" x2="125" y2="193" stroke="hsla(185,55%,70%,0.18)" stroke-width="1.2"/><line x1="143" y1="190" x2="139" y2="212" stroke="hsla(185,55%,70%,0.18)" stroke-width="1.2"/><line x1="157" y1="209" x2="153" y2="231" stroke="hsla(185,55%,70%,0.18)" stroke-width="1.2"/><line x1="171" y1="228" x2="167" y2="250" stroke="hsla(185,55%,70%,0.18)" stroke-width="1.2"/><line x1="185" y1="247" x2="181" y2="269" stroke="hsla(185,55%,70%,0.18)" stroke-width="1.2"/><line x1="199" y1="266" x2="195" y2="288" stroke="hsla(185,55%,70%,0.18)" stroke-width="1.2"/><line x1="213" y1="285" x2="209" y2="307" stroke="hsla(185,55%,70%,0.18)" stroke-width="1.2"/><line x1="227" y1="304" x2="223" y2="326" stroke="hsla(185,55%,70%,0.18)" stroke-width="1.2"/><line x1="241" y1="323" x2="237" y2="345" stroke="hsla(185,55%,70%,0.18)" stroke-width="1.2"/><line x1="255" y1="342" x2="251" y2="364" stroke="hsla(185,55%,70%,0.18)" stroke-width="1.2"/><line x1="269" y1="361" x2="265" y2="383" stroke="hsla(185,55%,70%,0.18)" stroke-width="1.2"/><line x1="283" y1="380" x2="279" y2="402" stroke="hsla(185,55%,70%,0.18)" stroke-width="1.2"/><line x1="297" y1="399" x2="293" y2="421" stroke="hsla(185,55%,70%,0.18)" stroke-width="1.2"/><line x1="311" y1="18" x2="307" y2="40" stroke="hsla(185,55%,70%,0.18)" stroke-width="1.2"/><line x1="325" y1="37" x2="321" y2="59" stroke="hsla(185,55%,70%,0.18)" stroke-width="1.2"/>
  <ellipse cx="170" cy="420" rx="200" ry="55" fill="hsla(185,62%,14%,0.55)"/>
  <g opacity="0.85">
    <ellipse cx="170" cy="360" rx="48" ry="12" fill="hsla(185,20%,8%,0.5)"/>
    <path d="M 153 360 L 170 223 L 177 360 Z" fill="hsla(215,62%,22%,0.75)"/>
    <circle cx="170" cy="213" r="22" fill="hsla(185,35%,38%,0.9)"/>
  </g>
  <rect x="0" y="0" width="340" height="510" fill="url(#vignette)" opacity="0.35"/>
  <rect width="340" height="510" fill="url(#vignette)"/>
  <text x="20" y="488" fill="hsla(185,18%,92%,0.7)" font-family="Outfit, system-ui, sans-serif" font-size="11" font-weight="600" letter-spacing="0.06em">NEON SAMARITAN</text>
  <text x="20" y="36" fill="hsla(185,25%,88%,0.35)" font-family="Outfit, system-ui, sans-serif" font-size="9" letter-spacing="0.12em">cyberpunk alley rain neon signs</text>
</svg>