<?xml version="1.0" encoding="UTF-8"?>
<svg xmlns="http://www.w3.org/2000/svg" viewBox="0 0 340 510" width="340" height="510">
  <defs>
    <linearGradient id="sky" x1="0%" y1="0%" x2="0%" y2="100%">
      <stop offset="0%" stop-color="hsl(295,43%,36%)"/>
      <stop offset="45%" stop-color="hsl(337,35%,24%)"/>
      <stop offset="100%" stop-color="hsl(295,30%,14%)"/>
    </linearGradient>
    <radialGradient id="sun" cx="72%" cy="18%" r="45%">
      <stop offset="0%" stop-color="hsla(315,70%,72%,0.55)"/>
      <stop offset="100%" stop-color="transparent"/>
    </radialGradient>
    <linearGradient id="vignette" x1="50%" y1="50%" x2="50%" y2="100%">
      <stop offset="55%" stop-color="transparent"/>
      <stop offset="100%" stop-color="rgba(0,0,0,0.72)"/>
    </linearGradient>
    <filter id="blur"><feGaussianBlur stdDeviation="18"/></filter>
  </defs>
  <rect width="340" height="510" fill="url(#sky)"/>
  <rect width="340" height="510" fill="url(#sun)"/>
  <circle cx="55" cy="45" r="0.8" fill="white" opacity="0.25"/><circle cx="70" cy="20" r="1.4" fill="white" opacity="0.37"/><circle cx="85" cy="195" r="2" fill="white" opacity="0.49"/><circle cx="100" cy="170" r="0.8" fill="white" opacity="0.61"/><circle cx="115" cy="145" r="1.4" fill="white" opacity="0.73"/><circle cx="130" cy="120" r="2" fill="white" opacity="0.25"/><circle cx="145" cy="95" r="0.8" fill="white" opacity="0.37"/><circle cx="160" cy="70" r="1.4" fill="white" opacity="0.49"/><circle cx="175" cy="45" r="2" fill="white" opacity="0.61"/><circle cx="190" cy="20" r="0.8" fill="white" opacity="0.73"/><circle cx="205" cy="195" r="1.4" fill="white" opacity="0.25"/><circle cx="220" cy="170" r="2" fill="white" opacity="0.37"/><circle cx="235" cy="145" r="0.8" fill="white" opacity="0.49"/><circle cx="250" cy="120" r="1.4" fill="white" opacity="0.61"/><circle cx="265" cy="95" r="2" fill="white" opacity="0.73"/><circle cx="280" cy="70" r="0.8" fill="white" opacity="0.25"/><circle cx="295" cy="45" r="1.4" fill="white" opacity="0.37"/><circle cx="310" cy="20" r="2" fill="white" opacity="0.49"/>
  <circle cx="235" cy="155" r="35" fill="hsla(345,35%,36%,0.18)"/>
  <rect x="0" y="280" width="340" height="230" fill="hsla(295,25%,14%,0.35)" filter="url(#blur)" opacity="0.6"/>
  <ellipse cx="170" cy="155" rx="120" ry="90" fill="hsla(295,45%,36%,0.22)"/>
  <line x1="15" y1="0" x2="11" y2="22" stroke="hsla(295,55%,70%,0.18)" stroke-width="1.2"/><line x1="29" y1="19" x2="25" y2="41" stroke="hsla(295,55%,70%,0.18)" stroke-width="1.2"/><line x1="43" y1="38" x2="39" y2="60" stroke="hsla(295,55%,70%,0.18)" stroke-width="1.2"/><line x1="57" y1="57" x2="53" y2="79" stroke="hsla(295,55%,70%,0.18)" stroke-width="1.2"/><line x1="71" y1="76" x2="67" y2="98" stroke="hsla(295,55%,70%,0.18)" stroke-width="1.2"/><line x1="85" y1="95" x2="81" y2="117" stroke="hsla(295,55%,70%,0.18)" stroke-width="1.2"/><line x1="99" y1="114" x2="95" y2="136" stroke="hsla(295,55%,70%,0.18)" stroke-width="1.2"/><line x1="113" y1="133" x2="109" y2="155" stroke="hsla(295,55%,70%,0.18)" stroke-width="1.2"/><line x1="127" y1="152" x2="123" y2="174" stroke="hsla(295,55%,70%,0.18)" stroke-width="1.2"/><line x1="141" y1="171" x2="137" y2="193" stroke="hsla(295,55%,70%,0.18)" stroke-width="1.2"/><line x1="155" y1="190" x2="151" y2="212" stroke="hsla(295,55%,70%,0.18)" stroke-width="1.2"/><line x1="169" y1="209" x2="165" y2="231" stroke="hsla(295,55%,70%,0.18)" stroke-width="1.2"/><line x1="183" y1="228" x2="179" y2="250" stroke="hsla(295,55%,70%,0.18)" stroke-width="1.2"/><line x1="197" y1="247" x2="193" y2="269" stroke="hsla(295,55%,70%,0.18)" stroke-width="1.2"/><line x1="211" y1="266" x2="207" y2="288" stroke="hsla(295,55%,70%,0.18)" stroke-width="1.2"/><line x1="225" y1="285" x2="221" y2="307" stroke="hsla(295,55%,70%,0.18)" stroke-width="1.2"/><line x1="239" y1="304" x2="235" y2="326" stroke="hsla(295,55%,70%,0.18)" stroke-width="1.2"/><line x1="253" y1="323" x2="249" y2="345" stroke="hsla(295,55%,70%,0.18)" stroke-width="1.2"/><line x1="267" y1="342" x2="263" y2="364" stroke="hsla(295,55%,70%,0.18)" stroke-width="1.2"/><line x1="281" y1="361" x2="277" y2="383" stroke="hsla(295,55%,70%,0.18)" stroke-width="1.2"/><line x1="295" y1="380" x2="291" y2="402" stroke="hsla(295,55%,70%,0.18)" stroke-width="1.2"/><line x1="309" y1="399" x2="305" y2="421" stroke="hsla(295,55%,70%,0.18)" stroke-width="1.2"/><line x1="323" y1="18" x2="319" y2="40" stroke="hsla(295,55%,70%,0.18)" stroke-width="1.2"/><line x1="337" y1="37" x2="333" y2="59" stroke="hsla(295,55%,70%,0.18)" stroke-width="1.2"/>
  <ellipse cx="170" cy="420" rx="200" ry="55" fill="hsla(295,35%,14%,0.55)"/>
  <g opacity="0.85">
    <ellipse cx="170" cy="360" rx="48" ry="12" fill="hsla(295,20%,8%,0.5)"/>
    <path d="M 165 360 L 170 235 L 185 360 Z" fill="hsla(325,35%,24%,0.75)"/>
    <circle cx="170" cy="205" r="22" fill="hsla(295,35%,36%,0.9)"/>
  </g>
  <rect x="0" y="0" width="340" height="510" fill="url(#vignette)" opacity="0.35"/>
  <rect width="340" height="510" fill="url(#vignette)"/>
  <text x="20" y="488" fill="hsla(295,18%,92%,0.7)" font-family="Outfit, system-ui, sans-serif" font-size="11" font-weight="600" letter-spacing="0.06em">NEON ROSARY</text>
  <text x="20" y="36" fill="hsla(295,25%,88%,0.35)" font-family="Outfit, system-ui, sans-serif" font-size="9" letter-spacing="0.12em">neon church cyber drama</text>
</svg>