<?xml version="1.0" encoding="UTF-8"?>
<svg xmlns="http://www.w3.org/2000/svg" viewBox="0 0 340 510" width="340" height="510">
  <defs>
    <linearGradient id="sky" x1="0%" y1="0%" x2="0%" y2="100%">
      <stop offset="0%" stop-color="hsl(268,56%,42%)"/>
      <stop offset="45%" stop-color="hsl(310,48%,26%)"/>
      <stop offset="100%" stop-color="hsl(268,43%,16%)"/>
    </linearGradient>
    <radialGradient id="sun" cx="72%" cy="18%" r="45%">
      <stop offset="0%" stop-color="hsla(288,70%,72%,0.55)"/>
      <stop offset="100%" stop-color="transparent"/>
    </radialGradient>
    <linearGradient id="vignette" x1="50%" y1="50%" x2="50%" y2="100%">
      <stop offset="55%" stop-color="transparent"/>
      <stop offset="100%" stop-color="rgba(0,0,0,0.72)"/>
    </linearGradient>
    <filter id="blur"><feGaussianBlur stdDeviation="18"/></filter>
  </defs>
  <rect width="340" height="510" fill="url(#sky)"/>
  <rect width="340" height="510" fill="url(#sun)"/>
  <circle cx="277" cy="43" r="0.8" fill="white" opacity="0.25"/><circle cx="46" cy="132" r="1.4" fill="white" opacity="0.37"/><circle cx="135" cy="21" r="2" fill="white" opacity="0.49"/><circle cx="224" cy="110" r="0.8" fill="white" opacity="0.61"/><circle cx="313" cy="199" r="1.4" fill="white" opacity="0.73"/><circle cx="82" cy="88" r="2" fill="white" opacity="0.25"/><circle cx="171" cy="177" r="0.8" fill="white" opacity="0.37"/><circle cx="260" cy="66" r="1.4" fill="white" opacity="0.49"/><circle cx="29" cy="155" r="2" fill="white" opacity="0.61"/><circle cx="118" cy="44" r="0.8" fill="white" opacity="0.73"/><circle cx="207" cy="133" r="1.4" fill="white" opacity="0.25"/><circle cx="296" cy="22" r="2" fill="white" opacity="0.37"/><circle cx="65" cy="111" r="0.8" fill="white" opacity="0.49"/><circle cx="154" cy="200" r="1.4" fill="white" opacity="0.61"/><circle cx="243" cy="89" r="2" fill="white" opacity="0.73"/><circle cx="12" cy="178" r="0.8" fill="white" opacity="0.25"/><circle cx="101" cy="67" r="1.4" fill="white" opacity="0.37"/><circle cx="190" cy="156" r="2" fill="white" opacity="0.49"/>
  <circle cx="149" cy="169" r="49" fill="hsla(318,48%,42%,0.18)"/>
  <rect x="0" y="280" width="340" height="230" fill="hsla(268,38%,16%,0.35)" filter="url(#blur)" opacity="0.6"/>
  <ellipse cx="170" cy="149" rx="120" ry="90" fill="hsla(268,58%,42%,0.22)"/>
  
  <ellipse cx="170" cy="420" rx="200" ry="55" fill="hsla(268,48%,16%,0.55)"/>
  <g opacity="0.85">
    <ellipse cx="170" cy="360" rx="48" ry="12" fill="hsla(268,20%,8%,0.5)"/>
    <path d="M 159 360 L 170 229 L 176 360 Z" fill="hsla(298,48%,26%,0.75)"/>
    <circle cx="170" cy="229" r="22" fill="hsla(268,35%,42%,0.9)"/>
  </g>
  <rect x="0" y="0" width="340" height="510" fill="url(#vignette)" opacity="0.35"/>
  <rect width="340" height="510" fill="url(#vignette)"/>
  <text x="20" y="488" fill="hsla(268,18%,92%,0.7)" font-family="Outfit, system-ui, sans-serif" font-size="11" font-weight="600" letter-spacing="0.06em">OBSIDIAN CIRCUS</text>
  <text x="20" y="36" fill="hsla(268,25%,88%,0.35)" font-family="Outfit, system-ui, sans-serif" font-size="9" letter-spacing="0.12em">dark circus tent purple lights</text>
</svg>