<?xml version="1.0" encoding="UTF-8"?>
<svg xmlns="http://www.w3.org/2000/svg" viewBox="0 0 340 510" width="340" height="510">
  <defs>
    <linearGradient id="sky" x1="0%" y1="0%" x2="0%" y2="100%">
      <stop offset="0%" stop-color="hsl(330,66%,44%)"/>
      <stop offset="45%" stop-color="hsl(12,58%,28%)"/>
      <stop offset="100%" stop-color="hsl(330,53%,16%)"/>
    </linearGradient>
    <radialGradient id="sun" cx="72%" cy="18%" r="45%">
      <stop offset="0%" stop-color="hsla(350,70%,72%,0.55)"/>
      <stop offset="100%" stop-color="transparent"/>
    </radialGradient>
    <linearGradient id="vignette" x1="50%" y1="50%" x2="50%" y2="100%">
      <stop offset="55%" stop-color="transparent"/>
      <stop offset="100%" stop-color="rgba(0,0,0,0.72)"/>
    </linearGradient>
    <filter id="blur"><feGaussianBlur stdDeviation="18"/></filter>
  </defs>
  <rect width="340" height="510" fill="url(#sky)"/>
  <rect width="340" height="510" fill="url(#sun)"/>
  <circle cx="289" cy="71" r="0.8" fill="white" opacity="0.25"/><circle cx="62" cy="164" r="1.4" fill="white" opacity="0.37"/><circle cx="155" cy="57" r="2" fill="white" opacity="0.49"/><circle cx="248" cy="150" r="0.8" fill="white" opacity="0.61"/><circle cx="21" cy="43" r="1.4" fill="white" opacity="0.73"/><circle cx="114" cy="136" r="2" fill="white" opacity="0.25"/><circle cx="207" cy="29" r="0.8" fill="white" opacity="0.37"/><circle cx="300" cy="122" r="1.4" fill="white" opacity="0.49"/><circle cx="73" cy="215" r="2" fill="white" opacity="0.61"/><circle cx="166" cy="108" r="0.8" fill="white" opacity="0.73"/><circle cx="259" cy="201" r="1.4" fill="white" opacity="0.25"/><circle cx="32" cy="94" r="2" fill="white" opacity="0.37"/><circle cx="125" cy="187" r="0.8" fill="white" opacity="0.49"/><circle cx="218" cy="80" r="1.4" fill="white" opacity="0.61"/><circle cx="311" cy="173" r="2" fill="white" opacity="0.73"/><circle cx="84" cy="66" r="0.8" fill="white" opacity="0.25"/><circle cx="177" cy="159" r="1.4" fill="white" opacity="0.37"/><circle cx="270" cy="52" r="2" fill="white" opacity="0.49"/>
  <circle cx="153" cy="173" r="53" fill="hsla(20,58%,44%,0.18)"/>
  <rect x="0" y="280" width="340" height="230" fill="hsla(330,48%,16%,0.35)" filter="url(#blur)" opacity="0.6"/>
  <ellipse cx="170" cy="153" rx="120" ry="90" fill="hsla(330,68%,44%,0.22)"/>
  
  <ellipse cx="170" cy="420" rx="200" ry="55" fill="hsla(330,58%,16%,0.55)"/>
  <g opacity="0.85">
    <ellipse cx="170" cy="360" rx="48" ry="12" fill="hsla(330,20%,8%,0.5)"/>
    <path d="M 163 360 L 170 233 L 187 360 Z" fill="hsla(0,58%,28%,0.75)"/>
    <circle cx="170" cy="203" r="22" fill="hsla(330,35%,44%,0.9)"/>
  </g>
  <rect x="0" y="0" width="340" height="510" fill="url(#vignette)" opacity="0.35"/>
  <rect width="340" height="510" fill="url(#vignette)"/>
  <text x="20" y="488" fill="hsla(330,18%,92%,0.7)" font-family="Outfit, system-ui, sans-serif" font-size="11" font-weight="600" letter-spacing="0.06em">PETAL STRIKE</text>
  <text x="20" y="36" fill="hsla(330,25%,88%,0.35)" font-family="Outfit, system-ui, sans-serif" font-size="9" letter-spacing="0.12em">swordsman cherry blossoms action</text>
</svg>