<?xml version="1.0" encoding="UTF-8"?>
<svg xmlns="http://www.w3.org/2000/svg" viewBox="0 0 340 510" width="340" height="510">
  <defs>
    <linearGradient id="sky" x1="0%" y1="0%" x2="0%" y2="100%">
      <stop offset="0%" stop-color="hsl(195,43%,36%)"/>
      <stop offset="45%" stop-color="hsl(237,35%,24%)"/>
      <stop offset="100%" stop-color="hsl(195,30%,14%)"/>
    </linearGradient>
    <radialGradient id="sun" cx="72%" cy="18%" r="45%">
      <stop offset="0%" stop-color="hsla(215,70%,72%,0.55)"/>
      <stop offset="100%" stop-color="transparent"/>
    </radialGradient>
    <linearGradient id="vignette" x1="50%" y1="50%" x2="50%" y2="100%">
      <stop offset="55%" stop-color="transparent"/>
      <stop offset="100%" stop-color="rgba(0,0,0,0.72)"/>
    </linearGradient>
    <filter id="blur"><feGaussianBlur stdDeviation="18"/></filter>
  </defs>
  <rect width="340" height="510" fill="url(#sky)"/>
  <rect width="340" height="510" fill="url(#sun)"/>
  <circle cx="67" cy="153" r="0.8" fill="white" opacity="0.25"/><circle cx="86" cy="172" r="1.4" fill="white" opacity="0.37"/><circle cx="105" cy="191" r="2" fill="white" opacity="0.49"/><circle cx="124" cy="210" r="0.8" fill="white" opacity="0.61"/><circle cx="143" cy="29" r="1.4" fill="white" opacity="0.73"/><circle cx="162" cy="48" r="2" fill="white" opacity="0.25"/><circle cx="181" cy="67" r="0.8" fill="white" opacity="0.37"/><circle cx="200" cy="86" r="1.4" fill="white" opacity="0.49"/><circle cx="219" cy="105" r="2" fill="white" opacity="0.61"/><circle cx="238" cy="124" r="0.8" fill="white" opacity="0.73"/><circle cx="257" cy="143" r="1.4" fill="white" opacity="0.25"/><circle cx="276" cy="162" r="2" fill="white" opacity="0.37"/><circle cx="295" cy="181" r="0.8" fill="white" opacity="0.49"/><circle cx="314" cy="200" r="1.4" fill="white" opacity="0.61"/><circle cx="13" cy="219" r="2" fill="white" opacity="0.73"/><circle cx="32" cy="38" r="0.8" fill="white" opacity="0.25"/><circle cx="51" cy="57" r="1.4" fill="white" opacity="0.37"/><circle cx="70" cy="76" r="2" fill="white" opacity="0.49"/>
  <circle cx="79" cy="99" r="54" fill="hsla(245,35%,36%,0.18)"/>
  <rect x="0" y="280" width="340" height="230" fill="hsla(195,25%,14%,0.35)" filter="url(#blur)" opacity="0.6"/>
  <ellipse cx="170" cy="159" rx="120" ry="90" fill="hsla(195,45%,36%,0.22)"/>
  
  <ellipse cx="170" cy="420" rx="200" ry="55" fill="hsla(195,35%,14%,0.55)"/>
  <g opacity="0.85">
    <ellipse cx="170" cy="360" rx="48" ry="12" fill="hsla(195,20%,8%,0.5)"/>
    <path d="M 169 360 L 170 239 L 186 360 Z" fill="hsla(225,35%,24%,0.75)"/>
    <circle cx="170" cy="219" r="22" fill="hsla(195,35%,36%,0.9)"/>
  </g>
  <rect x="0" y="0" width="340" height="510" fill="url(#vignette)" opacity="0.35"/>
  <rect width="340" height="510" fill="url(#vignette)"/>
  <text x="20" y="488" fill="hsla(195,18%,92%,0.7)" font-family="Outfit, system-ui, sans-serif" font-size="11" font-weight="600" letter-spacing="0.06em">RIPPLE JURY</text>
  <text x="20" y="36" fill="hsla(195,25%,88%,0.35)" font-family="Outfit, system-ui, sans-serif" font-size="9" letter-spacing="0.12em">lake courtroom drama</text>
</svg>