<?xml version="1.0" encoding="UTF-8"?>
<svg xmlns="http://www.w3.org/2000/svg" viewBox="0 0 340 510" width="340" height="510">
  <defs>
    <linearGradient id="sky" x1="0%" y1="0%" x2="0%" y2="100%">
      <stop offset="0%" stop-color="hsl(170,56%,42%)"/>
      <stop offset="45%" stop-color="hsl(212,48%,26%)"/>
      <stop offset="100%" stop-color="hsl(170,43%,16%)"/>
    </linearGradient>
    <radialGradient id="sun" cx="72%" cy="18%" r="45%">
      <stop offset="0%" stop-color="hsla(190,70%,72%,0.55)"/>
      <stop offset="100%" stop-color="transparent"/>
    </radialGradient>
    <linearGradient id="vignette" x1="50%" y1="50%" x2="50%" y2="100%">
      <stop offset="55%" stop-color="transparent"/>
      <stop offset="100%" stop-color="rgba(0,0,0,0.72)"/>
    </linearGradient>
    <filter id="blur"><feGaussianBlur stdDeviation="18"/></filter>
  </defs>
  <rect width="340" height="510" fill="url(#sky)"/>
  <rect width="340" height="510" fill="url(#sun)"/>
  <circle cx="69" cy="51" r="0.8" fill="white" opacity="0.25"/><circle cx="302" cy="84" r="1.4" fill="white" opacity="0.37"/><circle cx="215" cy="117" r="2" fill="white" opacity="0.49"/><circle cx="128" cy="150" r="0.8" fill="white" opacity="0.61"/><circle cx="41" cy="183" r="1.4" fill="white" opacity="0.73"/><circle cx="274" cy="216" r="2" fill="white" opacity="0.25"/><circle cx="187" cy="49" r="0.8" fill="white" opacity="0.37"/><circle cx="100" cy="82" r="1.4" fill="white" opacity="0.49"/><circle cx="13" cy="115" r="2" fill="white" opacity="0.61"/><circle cx="246" cy="148" r="0.8" fill="white" opacity="0.73"/><circle cx="159" cy="181" r="1.4" fill="white" opacity="0.25"/><circle cx="72" cy="214" r="2" fill="white" opacity="0.37"/><circle cx="305" cy="47" r="0.8" fill="white" opacity="0.49"/><circle cx="218" cy="80" r="1.4" fill="white" opacity="0.61"/><circle cx="131" cy="113" r="2" fill="white" opacity="0.73"/><circle cx="44" cy="146" r="0.8" fill="white" opacity="0.25"/><circle cx="277" cy="179" r="1.4" fill="white" opacity="0.37"/><circle cx="190" cy="212" r="2" fill="white" opacity="0.49"/>
  <circle cx="93" cy="113" r="43" fill="hsla(220,48%,42%,0.18)"/>
  <rect x="0" y="280" width="340" height="230" fill="hsla(170,38%,16%,0.35)" filter="url(#blur)" opacity="0.6"/>
  <ellipse cx="170" cy="213" rx="120" ry="90" fill="hsla(170,58%,42%,0.22)"/>
  
  <ellipse cx="170" cy="420" rx="200" ry="55" fill="hsla(170,48%,16%,0.55)"/>
  <g opacity="0.85">
    <ellipse cx="170" cy="360" rx="48" ry="12" fill="hsla(170,20%,8%,0.5)"/>
    <path d="M 163 360 L 170 253 L 177 360 Z" fill="hsla(200,48%,26%,0.75)"/>
    <circle cx="170" cy="213" r="22" fill="hsla(170,35%,42%,0.9)"/>
  </g>
  <rect x="0" y="0" width="340" height="510" fill="url(#vignette)" opacity="0.35"/>
  <rect width="340" height="510" fill="url(#vignette)"/>
  <text x="20" y="488" fill="hsla(170,18%,92%,0.7)" font-family="Outfit, system-ui, sans-serif" font-size="11" font-weight="600" letter-spacing="0.06em">RUNE HOSPITAL</text>
  <text x="20" y="36" fill="hsla(170,25%,88%,0.35)" font-family="Outfit, system-ui, sans-serif" font-size="9" letter-spacing="0.12em">rune hospital fantasy night</text>
</svg>