<?xml version="1.0" encoding="UTF-8"?>
<svg xmlns="http://www.w3.org/2000/svg" viewBox="0 0 340 510" width="340" height="510">
  <defs>
    <linearGradient id="sky" x1="0%" y1="0%" x2="0%" y2="100%">
      <stop offset="0%" stop-color="hsl(35,56%,42%)"/>
      <stop offset="45%" stop-color="hsl(77,48%,26%)"/>
      <stop offset="100%" stop-color="hsl(35,43%,16%)"/>
    </linearGradient>
    <radialGradient id="sun" cx="72%" cy="18%" r="45%">
      <stop offset="0%" stop-color="hsla(55,70%,72%,0.55)"/>
      <stop offset="100%" stop-color="transparent"/>
    </radialGradient>
    <linearGradient id="vignette" x1="50%" y1="50%" x2="50%" y2="100%">
      <stop offset="55%" stop-color="transparent"/>
      <stop offset="100%" stop-color="rgba(0,0,0,0.72)"/>
    </linearGradient>
    <filter id="blur"><feGaussianBlur stdDeviation="18"/></filter>
  </defs>
  <rect width="340" height="510" fill="url(#sky)"/>
  <rect width="340" height="510" fill="url(#sun)"/>
  <circle cx="144" cy="106" r="0.8" fill="white" opacity="0.25"/><circle cx="82" cy="204" r="1.4" fill="white" opacity="0.37"/><circle cx="20" cy="102" r="2" fill="white" opacity="0.49"/><circle cx="278" cy="200" r="0.8" fill="white" opacity="0.61"/><circle cx="216" cy="98" r="1.4" fill="white" opacity="0.73"/><circle cx="154" cy="196" r="2" fill="white" opacity="0.25"/><circle cx="92" cy="94" r="0.8" fill="white" opacity="0.37"/><circle cx="30" cy="192" r="1.4" fill="white" opacity="0.49"/><circle cx="288" cy="90" r="2" fill="white" opacity="0.61"/><circle cx="226" cy="188" r="0.8" fill="white" opacity="0.73"/><circle cx="164" cy="86" r="1.4" fill="white" opacity="0.25"/><circle cx="102" cy="184" r="2" fill="white" opacity="0.37"/><circle cx="40" cy="82" r="0.8" fill="white" opacity="0.49"/><circle cx="298" cy="180" r="1.4" fill="white" opacity="0.61"/><circle cx="236" cy="78" r="2" fill="white" opacity="0.73"/><circle cx="174" cy="176" r="0.8" fill="white" opacity="0.25"/><circle cx="112" cy="74" r="1.4" fill="white" opacity="0.37"/><circle cx="50" cy="172" r="2" fill="white" opacity="0.49"/>
  <circle cx="158" cy="178" r="58" fill="hsla(85,48%,42%,0.18)"/>
  <rect x="0" y="280" width="340" height="230" fill="hsla(35,38%,16%,0.35)" filter="url(#blur)" opacity="0.6"/>
  <ellipse cx="170" cy="158" rx="120" ry="90" fill="hsla(35,58%,42%,0.22)"/>
  
  <ellipse cx="170" cy="420" rx="200" ry="55" fill="hsla(35,48%,16%,0.55)"/>
  <g opacity="0.85">
    <ellipse cx="170" cy="360" rx="48" ry="12" fill="hsla(35,20%,8%,0.5)"/>
    <path d="M 168 360 L 170 238 L 187 360 Z" fill="hsla(65,48%,26%,0.75)"/>
    <circle cx="170" cy="218" r="22" fill="hsla(35,35%,42%,0.9)"/>
  </g>
  <rect x="0" y="0" width="340" height="510" fill="url(#vignette)" opacity="0.35"/>
  <rect width="340" height="510" fill="url(#vignette)"/>
  <text x="20" y="488" fill="hsla(35,18%,92%,0.7)" font-family="Outfit, system-ui, sans-serif" font-size="11" font-weight="600" letter-spacing="0.06em">SAFFRON GATE</text>
  <text x="20" y="36" fill="hsla(35,25%,88%,0.35)" font-family="Outfit, system-ui, sans-serif" font-size="9" letter-spacing="0.12em">spice gate portal fantasy</text>
</svg>