<?xml version="1.0" encoding="UTF-8"?>
<svg xmlns="http://www.w3.org/2000/svg" viewBox="0 0 340 510" width="340" height="510">
  <defs>
    <linearGradient id="sky" x1="0%" y1="0%" x2="0%" y2="100%">
      <stop offset="0%" stop-color="hsl(228,36%,28%)"/>
      <stop offset="45%" stop-color="hsl(270,28%,18%)"/>
      <stop offset="100%" stop-color="hsl(228,23%,10%)"/>
    </linearGradient>
    <radialGradient id="sun" cx="72%" cy="18%" r="45%">
      <stop offset="0%" stop-color="hsla(248,70%,72%,0.55)"/>
      <stop offset="100%" stop-color="transparent"/>
    </radialGradient>
    <linearGradient id="vignette" x1="50%" y1="50%" x2="50%" y2="100%">
      <stop offset="55%" stop-color="transparent"/>
      <stop offset="100%" stop-color="rgba(0,0,0,0.72)"/>
    </linearGradient>
    <filter id="blur"><feGaussianBlur stdDeviation="18"/></filter>
  </defs>
  <rect width="340" height="510" fill="url(#sky)"/>
  <rect width="340" height="510" fill="url(#sun)"/>
  <circle cx="146" cy="204" r="0.8" fill="white" opacity="0.25"/><circle cx="298" cy="116" r="1.4" fill="white" opacity="0.37"/><circle cx="130" cy="28" r="2" fill="white" opacity="0.49"/><circle cx="282" cy="140" r="0.8" fill="white" opacity="0.61"/><circle cx="114" cy="52" r="1.4" fill="white" opacity="0.73"/><circle cx="266" cy="164" r="2" fill="white" opacity="0.25"/><circle cx="98" cy="76" r="0.8" fill="white" opacity="0.37"/><circle cx="250" cy="188" r="1.4" fill="white" opacity="0.49"/><circle cx="82" cy="100" r="2" fill="white" opacity="0.61"/><circle cx="234" cy="212" r="0.8" fill="white" opacity="0.73"/><circle cx="66" cy="124" r="1.4" fill="white" opacity="0.25"/><circle cx="218" cy="36" r="2" fill="white" opacity="0.37"/><circle cx="50" cy="148" r="0.8" fill="white" opacity="0.49"/><circle cx="202" cy="60" r="1.4" fill="white" opacity="0.61"/><circle cx="34" cy="172" r="2" fill="white" opacity="0.73"/><circle cx="186" cy="84" r="0.8" fill="white" opacity="0.25"/><circle cx="18" cy="196" r="1.4" fill="white" opacity="0.37"/><circle cx="170" cy="108" r="2" fill="white" opacity="0.49"/>
  <circle cx="172" cy="92" r="47" fill="hsla(278,28%,28%,0.18)"/>
  <rect x="0" y="280" width="340" height="230" fill="hsla(228,18%,10%,0.35)" filter="url(#blur)" opacity="0.6"/>
  <ellipse cx="170" cy="212" rx="120" ry="90" fill="hsla(228,38%,28%,0.22)"/>
  <line x1="12" y1="0" x2="8" y2="22" stroke="hsla(228,55%,70%,0.18)" stroke-width="1.2"/><line x1="26" y1="19" x2="22" y2="41" stroke="hsla(228,55%,70%,0.18)" stroke-width="1.2"/><line x1="40" y1="38" x2="36" y2="60" stroke="hsla(228,55%,70%,0.18)" stroke-width="1.2"/><line x1="54" y1="57" x2="50" y2="79" stroke="hsla(228,55%,70%,0.18)" stroke-width="1.2"/><line x1="68" y1="76" x2="64" y2="98" stroke="hsla(228,55%,70%,0.18)" stroke-width="1.2"/><line x1="82" y1="95" x2="78" y2="117" stroke="hsla(228,55%,70%,0.18)" stroke-width="1.2"/><line x1="96" y1="114" x2="92" y2="136" stroke="hsla(228,55%,70%,0.18)" stroke-width="1.2"/><line x1="110" y1="133" x2="106" y2="155" stroke="hsla(228,55%,70%,0.18)" stroke-width="1.2"/><line x1="124" y1="152" x2="120" y2="174" stroke="hsla(228,55%,70%,0.18)" stroke-width="1.2"/><line x1="138" y1="171" x2="134" y2="193" stroke="hsla(228,55%,70%,0.18)" stroke-width="1.2"/><line x1="152" y1="190" x2="148" y2="212" stroke="hsla(228,55%,70%,0.18)" stroke-width="1.2"/><line x1="166" y1="209" x2="162" y2="231" stroke="hsla(228,55%,70%,0.18)" stroke-width="1.2"/><line x1="180" y1="228" x2="176" y2="250" stroke="hsla(228,55%,70%,0.18)" stroke-width="1.2"/><line x1="194" y1="247" x2="190" y2="269" stroke="hsla(228,55%,70%,0.18)" stroke-width="1.2"/><line x1="208" y1="266" x2="204" y2="288" stroke="hsla(228,55%,70%,0.18)" stroke-width="1.2"/><line x1="222" y1="285" x2="218" y2="307" stroke="hsla(228,55%,70%,0.18)" stroke-width="1.2"/><line x1="236" y1="304" x2="232" y2="326" stroke="hsla(228,55%,70%,0.18)" stroke-width="1.2"/><line x1="250" y1="323" x2="246" y2="345" stroke="hsla(228,55%,70%,0.18)" stroke-width="1.2"/><line x1="264" y1="342" x2="260" y2="364" stroke="hsla(228,55%,70%,0.18)" stroke-width="1.2"/><line x1="278" y1="361" x2="274" y2="383" stroke="hsla(228,55%,70%,0.18)" stroke-width="1.2"/><line x1="292" y1="380" x2="288" y2="402" stroke="hsla(228,55%,70%,0.18)" stroke-width="1.2"/><line x1="306" y1="399" x2="302" y2="421" stroke="hsla(228,55%,70%,0.18)" stroke-width="1.2"/><line x1="320" y1="18" x2="316" y2="40" stroke="hsla(228,55%,70%,0.18)" stroke-width="1.2"/><line x1="334" y1="37" x2="330" y2="59" stroke="hsla(228,55%,70%,0.18)" stroke-width="1.2"/>
  <ellipse cx="170" cy="420" rx="200" ry="55" fill="hsla(228,28%,10%,0.55)"/>
  <g opacity="0.85">
    <ellipse cx="170" cy="360" rx="48" ry="12" fill="hsla(228,20%,8%,0.5)"/>
    <path d="M 162 360 L 170 252 L 178 360 Z" fill="hsla(258,28%,18%,0.75)"/>
    <circle cx="170" cy="212" r="22" fill="hsla(228,35%,28%,0.9)"/>
  </g>
  <rect x="0" y="0" width="340" height="510" fill="url(#vignette)" opacity="0.35"/>
  <rect width="340" height="510" fill="url(#vignette)"/>
  <text x="20" y="488" fill="hsla(228,18%,92%,0.7)" font-family="Outfit, system-ui, sans-serif" font-size="11" font-weight="600" letter-spacing="0.06em">SILENT WITNESS</text>
  <text x="20" y="36" fill="hsla(228,25%,88%,0.35)" font-family="Outfit, system-ui, sans-serif" font-size="9" letter-spacing="0.12em">noir detective rain city</text>
</svg>