<?xml version="1.0" encoding="UTF-8"?>
<svg xmlns="http://www.w3.org/2000/svg" viewBox="0 0 340 510" width="340" height="510">
  <defs>
    <linearGradient id="sky" x1="0%" y1="0%" x2="0%" y2="100%">
      <stop offset="0%" stop-color="hsl(18,66%,44%)"/>
      <stop offset="45%" stop-color="hsl(60,58%,28%)"/>
      <stop offset="100%" stop-color="hsl(18,53%,16%)"/>
    </linearGradient>
    <radialGradient id="sun" cx="72%" cy="18%" r="45%">
      <stop offset="0%" stop-color="hsla(38,70%,72%,0.55)"/>
      <stop offset="100%" stop-color="transparent"/>
    </radialGradient>
    <linearGradient id="vignette" x1="50%" y1="50%" x2="50%" y2="100%">
      <stop offset="55%" stop-color="transparent"/>
      <stop offset="100%" stop-color="rgba(0,0,0,0.72)"/>
    </linearGradient>
    <filter id="blur"><feGaussianBlur stdDeviation="18"/></filter>
  </defs>
  <rect width="340" height="510" fill="url(#sky)"/>
  <rect width="340" height="510" fill="url(#sun)"/>
  <circle cx="247" cy="133" r="0.8" fill="white" opacity="0.25"/><circle cx="326" cy="92" r="1.4" fill="white" opacity="0.37"/><circle cx="85" cy="51" r="2" fill="white" opacity="0.49"/><circle cx="164" cy="210" r="0.8" fill="white" opacity="0.61"/><circle cx="243" cy="169" r="1.4" fill="white" opacity="0.73"/><circle cx="322" cy="128" r="2" fill="white" opacity="0.25"/><circle cx="81" cy="87" r="0.8" fill="white" opacity="0.37"/><circle cx="160" cy="46" r="1.4" fill="white" opacity="0.49"/><circle cx="239" cy="205" r="2" fill="white" opacity="0.61"/><circle cx="318" cy="164" r="0.8" fill="white" opacity="0.73"/><circle cx="77" cy="123" r="1.4" fill="white" opacity="0.25"/><circle cx="156" cy="82" r="2" fill="white" opacity="0.37"/><circle cx="235" cy="41" r="0.8" fill="white" opacity="0.49"/><circle cx="314" cy="200" r="1.4" fill="white" opacity="0.61"/><circle cx="73" cy="159" r="2" fill="white" opacity="0.73"/><circle cx="152" cy="118" r="0.8" fill="white" opacity="0.25"/><circle cx="231" cy="77" r="1.4" fill="white" opacity="0.37"/><circle cx="310" cy="36" r="2" fill="white" opacity="0.49"/>
  <circle cx="219" cy="139" r="44" fill="hsla(68,58%,44%,0.18)"/>
  <rect x="0" y="280" width="340" height="230" fill="hsla(18,48%,16%,0.35)" filter="url(#blur)" opacity="0.6"/>
  <ellipse cx="170" cy="219" rx="120" ry="90" fill="hsla(18,68%,44%,0.22)"/>
  
  <ellipse cx="170" cy="420" rx="200" ry="55" fill="hsla(18,58%,16%,0.55)"/>
  <g opacity="0.85">
    <ellipse cx="170" cy="360" rx="48" ry="12" fill="hsla(18,20%,8%,0.5)"/>
    <path d="M 169 360 L 170 259 L 186 360 Z" fill="hsla(48,58%,28%,0.75)"/>
    <circle cx="170" cy="219" r="22" fill="hsla(18,35%,44%,0.9)"/>
  </g>
  <rect x="0" y="0" width="340" height="510" fill="url(#vignette)" opacity="0.35"/>
  <rect width="340" height="510" fill="url(#vignette)"/>
  <text x="20" y="488" fill="hsla(18,18%,92%,0.7)" font-family="Outfit, system-ui, sans-serif" font-size="11" font-weight="600" letter-spacing="0.06em">SOLAR ASH</text>
  <text x="20" y="36" fill="hsla(18,25%,88%,0.35)" font-family="Outfit, system-ui, sans-serif" font-size="9" letter-spacing="0.12em">desert warrior solar flare</text>
</svg>