<?xml version="1.0" encoding="UTF-8"?>
<svg xmlns="http://www.w3.org/2000/svg" viewBox="0 0 340 510" width="340" height="510">
  <defs>
    <linearGradient id="sky" x1="0%" y1="0%" x2="0%" y2="100%">
      <stop offset="0%" stop-color="hsl(315,50%,48%)"/>
      <stop offset="45%" stop-color="hsl(357,42%,30%)"/>
      <stop offset="100%" stop-color="hsl(315,37%,18%)"/>
    </linearGradient>
    <radialGradient id="sun" cx="72%" cy="18%" r="45%">
      <stop offset="0%" stop-color="hsla(335,70%,72%,0.55)"/>
      <stop offset="100%" stop-color="transparent"/>
    </radialGradient>
    <linearGradient id="vignette" x1="50%" y1="50%" x2="50%" y2="100%">
      <stop offset="55%" stop-color="transparent"/>
      <stop offset="100%" stop-color="rgba(0,0,0,0.72)"/>
    </linearGradient>
    <filter id="blur"><feGaussianBlur stdDeviation="18"/></filter>
  </defs>
  <rect width="340" height="510" fill="url(#sky)"/>
  <rect width="340" height="510" fill="url(#sun)"/>
  <circle cx="299" cy="81" r="0.8" fill="white" opacity="0.25"/><circle cx="182" cy="204" r="1.4" fill="white" opacity="0.37"/><circle cx="65" cy="127" r="2" fill="white" opacity="0.49"/><circle cx="268" cy="50" r="0.8" fill="white" opacity="0.61"/><circle cx="151" cy="173" r="1.4" fill="white" opacity="0.73"/><circle cx="34" cy="96" r="2" fill="white" opacity="0.25"/><circle cx="237" cy="219" r="0.8" fill="white" opacity="0.37"/><circle cx="120" cy="142" r="1.4" fill="white" opacity="0.49"/><circle cx="323" cy="65" r="2" fill="white" opacity="0.61"/><circle cx="206" cy="188" r="0.8" fill="white" opacity="0.73"/><circle cx="89" cy="111" r="1.4" fill="white" opacity="0.25"/><circle cx="292" cy="34" r="2" fill="white" opacity="0.37"/><circle cx="175" cy="157" r="0.8" fill="white" opacity="0.49"/><circle cx="58" cy="80" r="1.4" fill="white" opacity="0.61"/><circle cx="261" cy="203" r="2" fill="white" opacity="0.73"/><circle cx="144" cy="126" r="0.8" fill="white" opacity="0.25"/><circle cx="27" cy="49" r="1.4" fill="white" opacity="0.37"/><circle cx="230" cy="172" r="2" fill="white" opacity="0.49"/>
  <circle cx="183" cy="103" r="58" fill="hsla(5,42%,48%,0.18)"/>
  <rect x="0" y="280" width="340" height="230" fill="hsla(315,32%,18%,0.35)" filter="url(#blur)" opacity="0.6"/>
  <ellipse cx="170" cy="183" rx="120" ry="90" fill="hsla(315,52%,48%,0.22)"/>
  
  <ellipse cx="170" cy="420" rx="200" ry="55" fill="hsla(315,42%,18%,0.55)"/>
  <g opacity="0.85">
    <ellipse cx="170" cy="360" rx="48" ry="12" fill="hsla(315,20%,8%,0.5)"/>
    <path d="M 153 360 L 170 223 L 182 360 Z" fill="hsla(345,42%,30%,0.75)"/>
    <circle cx="170" cy="223" r="22" fill="hsla(315,35%,48%,0.9)"/>
  </g>
  <rect x="0" y="0" width="340" height="510" fill="url(#vignette)" opacity="0.35"/>
  <rect width="340" height="510" fill="url(#vignette)"/>
  <text x="20" y="488" fill="hsla(315,18%,92%,0.7)" font-family="Outfit, system-ui, sans-serif" font-size="11" font-weight="600" letter-spacing="0.06em">STARFRUIT CAFÉ</text>
  <text x="20" y="36" fill="hsla(315,25%,88%,0.35)" font-family="Outfit, system-ui, sans-serif" font-size="9" letter-spacing="0.12em">cozy cafe starfruit romance</text>
</svg>