<?xml version="1.0" encoding="UTF-8"?>
<svg xmlns="http://www.w3.org/2000/svg" viewBox="0 0 340 510" width="340" height="510">
  <defs>
    <linearGradient id="sky" x1="0%" y1="0%" x2="0%" y2="100%">
      <stop offset="0%" stop-color="hsl(230,36%,28%)"/>
      <stop offset="45%" stop-color="hsl(272,28%,18%)"/>
      <stop offset="100%" stop-color="hsl(230,23%,10%)"/>
    </linearGradient>
    <radialGradient id="sun" cx="72%" cy="18%" r="45%">
      <stop offset="0%" stop-color="hsla(250,70%,72%,0.55)"/>
      <stop offset="100%" stop-color="transparent"/>
    </radialGradient>
    <linearGradient id="vignette" x1="50%" y1="50%" x2="50%" y2="100%">
      <stop offset="55%" stop-color="transparent"/>
      <stop offset="100%" stop-color="rgba(0,0,0,0.72)"/>
    </linearGradient>
    <filter id="blur"><feGaussianBlur stdDeviation="18"/></filter>
  </defs>
  <rect width="340" height="510" fill="url(#sky)"/>
  <rect width="340" height="510" fill="url(#sun)"/>
  <circle cx="184" cy="106" r="0.8" fill="white" opacity="0.25"/><circle cx="242" cy="204" r="1.4" fill="white" opacity="0.37"/><circle cx="300" cy="102" r="2" fill="white" opacity="0.49"/><circle cx="38" cy="200" r="0.8" fill="white" opacity="0.61"/><circle cx="96" cy="98" r="1.4" fill="white" opacity="0.73"/><circle cx="154" cy="196" r="2" fill="white" opacity="0.25"/><circle cx="212" cy="94" r="0.8" fill="white" opacity="0.37"/><circle cx="270" cy="192" r="1.4" fill="white" opacity="0.49"/><circle cx="328" cy="90" r="2" fill="white" opacity="0.61"/><circle cx="66" cy="188" r="0.8" fill="white" opacity="0.73"/><circle cx="124" cy="86" r="1.4" fill="white" opacity="0.25"/><circle cx="182" cy="184" r="2" fill="white" opacity="0.37"/><circle cx="240" cy="82" r="0.8" fill="white" opacity="0.49"/><circle cx="298" cy="180" r="1.4" fill="white" opacity="0.61"/><circle cx="36" cy="78" r="2" fill="white" opacity="0.73"/><circle cx="94" cy="176" r="0.8" fill="white" opacity="0.25"/><circle cx="152" cy="74" r="1.4" fill="white" opacity="0.37"/><circle cx="210" cy="172" r="2" fill="white" opacity="0.49"/>
  <circle cx="158" cy="178" r="58" fill="hsla(280,28%,28%,0.18)"/>
  <rect x="0" y="280" width="340" height="230" fill="hsla(230,18%,10%,0.35)" filter="url(#blur)" opacity="0.6"/>
  <ellipse cx="170" cy="198" rx="120" ry="90" fill="hsla(230,38%,28%,0.22)"/>
  
  <ellipse cx="170" cy="420" rx="200" ry="55" fill="hsla(230,28%,10%,0.55)"/>
  <g opacity="0.85">
    <ellipse cx="170" cy="360" rx="48" ry="12" fill="hsla(230,20%,8%,0.5)"/>
    <path d="M 168 360 L 170 238 L 177 360 Z" fill="hsla(260,28%,18%,0.75)"/>
    <circle cx="170" cy="228" r="22" fill="hsla(230,35%,28%,0.9)"/>
  </g>
  <rect x="0" y="0" width="340" height="510" fill="url(#vignette)" opacity="0.35"/>
  <rect width="340" height="510" fill="url(#vignette)"/>
  <text x="20" y="488" fill="hsla(230,18%,92%,0.7)" font-family="Outfit, system-ui, sans-serif" font-size="11" font-weight="600" letter-spacing="0.06em">STORM TELEGRAM</text>
  <text x="20" y="36" fill="hsla(230,25%,88%,0.35)" font-family="Outfit, system-ui, sans-serif" font-size="9" letter-spacing="0.12em">storm lighthouse telegram thriller</text>
</svg>