<?xml version="1.0" encoding="UTF-8"?>
<svg xmlns="http://www.w3.org/2000/svg" viewBox="0 0 340 510" width="340" height="510">
  <defs>
    <linearGradient id="sky" x1="0%" y1="0%" x2="0%" y2="100%">
      <stop offset="0%" stop-color="hsl(55,66%,44%)"/>
      <stop offset="45%" stop-color="hsl(97,58%,28%)"/>
      <stop offset="100%" stop-color="hsl(55,53%,16%)"/>
    </linearGradient>
    <radialGradient id="sun" cx="72%" cy="18%" r="45%">
      <stop offset="0%" stop-color="hsla(75,70%,72%,0.55)"/>
      <stop offset="100%" stop-color="transparent"/>
    </radialGradient>
    <linearGradient id="vignette" x1="50%" y1="50%" x2="50%" y2="100%">
      <stop offset="55%" stop-color="transparent"/>
      <stop offset="100%" stop-color="rgba(0,0,0,0.72)"/>
    </linearGradient>
    <filter id="blur"><feGaussianBlur stdDeviation="18"/></filter>
  </defs>
  <rect width="340" height="510" fill="url(#sky)"/>
  <rect width="340" height="510" fill="url(#sun)"/>
  <circle cx="237" cy="163" r="0.8" fill="white" opacity="0.25"/><circle cx="206" cy="212" r="1.4" fill="white" opacity="0.37"/><circle cx="175" cy="61" r="2" fill="white" opacity="0.49"/><circle cx="144" cy="110" r="0.8" fill="white" opacity="0.61"/><circle cx="113" cy="159" r="1.4" fill="white" opacity="0.73"/><circle cx="82" cy="208" r="2" fill="white" opacity="0.25"/><circle cx="51" cy="57" r="0.8" fill="white" opacity="0.37"/><circle cx="20" cy="106" r="1.4" fill="white" opacity="0.49"/><circle cx="309" cy="155" r="2" fill="white" opacity="0.61"/><circle cx="278" cy="204" r="0.8" fill="white" opacity="0.73"/><circle cx="247" cy="53" r="1.4" fill="white" opacity="0.25"/><circle cx="216" cy="102" r="2" fill="white" opacity="0.37"/><circle cx="185" cy="151" r="0.8" fill="white" opacity="0.49"/><circle cx="154" cy="200" r="1.4" fill="white" opacity="0.61"/><circle cx="123" cy="49" r="2" fill="white" opacity="0.73"/><circle cx="92" cy="98" r="0.8" fill="white" opacity="0.25"/><circle cx="61" cy="147" r="1.4" fill="white" opacity="0.37"/><circle cx="30" cy="196" r="2" fill="white" opacity="0.49"/>
  <circle cx="109" cy="129" r="59" fill="hsla(105,58%,44%,0.18)"/>
  <rect x="0" y="280" width="340" height="230" fill="hsla(55,48%,16%,0.35)" filter="url(#blur)" opacity="0.6"/>
  <ellipse cx="170" cy="189" rx="120" ry="90" fill="hsla(55,68%,44%,0.22)"/>
  
  <ellipse cx="170" cy="420" rx="200" ry="55" fill="hsla(55,58%,16%,0.55)"/>
  <g opacity="0.85">
    <ellipse cx="170" cy="360" rx="48" ry="12" fill="hsla(55,20%,8%,0.5)"/>
    <path d="M 159 360 L 170 229 L 186 360 Z" fill="hsla(85,58%,28%,0.75)"/>
    <circle cx="170" cy="219" r="22" fill="hsla(55,35%,44%,0.9)"/>
  </g>
  <rect x="0" y="0" width="340" height="510" fill="url(#vignette)" opacity="0.35"/>
  <rect width="340" height="510" fill="url(#vignette)"/>
  <text x="20" y="488" fill="hsla(55,18%,92%,0.7)" font-family="Outfit, system-ui, sans-serif" font-size="11" font-weight="600" letter-spacing="0.06em">THUNDER BLOOM</text>
  <text x="20" y="36" fill="hsla(55,25%,88%,0.35)" font-family="Outfit, system-ui, sans-serif" font-size="9" letter-spacing="0.12em">lightning field warrior flowers</text>
</svg>