<?xml version="1.0" encoding="UTF-8"?>
<svg xmlns="http://www.w3.org/2000/svg" viewBox="0 0 340 510" width="340" height="510">
  <defs>
    <linearGradient id="sky" x1="0%" y1="0%" x2="0%" y2="100%">
      <stop offset="0%" stop-color="hsl(188,50%,48%)"/>
      <stop offset="45%" stop-color="hsl(230,42%,30%)"/>
      <stop offset="100%" stop-color="hsl(188,37%,18%)"/>
    </linearGradient>
    <radialGradient id="sun" cx="72%" cy="18%" r="45%">
      <stop offset="0%" stop-color="hsla(208,70%,72%,0.55)"/>
      <stop offset="100%" stop-color="transparent"/>
    </radialGradient>
    <linearGradient id="vignette" x1="50%" y1="50%" x2="50%" y2="100%">
      <stop offset="55%" stop-color="transparent"/>
      <stop offset="100%" stop-color="rgba(0,0,0,0.72)"/>
    </linearGradient>
    <filter id="blur"><feGaussianBlur stdDeviation="18"/></filter>
  </defs>
  <rect width="340" height="510" fill="url(#sky)"/>
  <rect width="340" height="510" fill="url(#sun)"/>
  <circle cx="55" cy="205" r="0.8" fill="white" opacity="0.25"/><circle cx="70" cy="60" r="1.4" fill="white" opacity="0.37"/><circle cx="85" cy="115" r="2" fill="white" opacity="0.49"/><circle cx="100" cy="170" r="0.8" fill="white" opacity="0.61"/><circle cx="115" cy="25" r="1.4" fill="white" opacity="0.73"/><circle cx="130" cy="80" r="2" fill="white" opacity="0.25"/><circle cx="145" cy="135" r="0.8" fill="white" opacity="0.37"/><circle cx="160" cy="190" r="1.4" fill="white" opacity="0.49"/><circle cx="175" cy="45" r="2" fill="white" opacity="0.61"/><circle cx="190" cy="100" r="0.8" fill="white" opacity="0.73"/><circle cx="205" cy="155" r="1.4" fill="white" opacity="0.25"/><circle cx="220" cy="210" r="2" fill="white" opacity="0.37"/><circle cx="235" cy="65" r="0.8" fill="white" opacity="0.49"/><circle cx="250" cy="120" r="1.4" fill="white" opacity="0.61"/><circle cx="265" cy="175" r="2" fill="white" opacity="0.73"/><circle cx="280" cy="30" r="0.8" fill="white" opacity="0.25"/><circle cx="295" cy="85" r="1.4" fill="white" opacity="0.37"/><circle cx="310" cy="140" r="2" fill="white" opacity="0.49"/>
  <circle cx="115" cy="135" r="40" fill="hsla(238,42%,48%,0.18)"/>
  <rect x="0" y="280" width="340" height="230" fill="hsla(188,32%,18%,0.35)" filter="url(#blur)" opacity="0.6"/>
  <ellipse cx="170" cy="155" rx="120" ry="90" fill="hsla(188,52%,48%,0.22)"/>
  
  <ellipse cx="170" cy="420" rx="200" ry="55" fill="hsla(188,42%,18%,0.55)"/>
  <g opacity="0.85">
    <ellipse cx="170" cy="360" rx="48" ry="12" fill="hsla(188,20%,8%,0.5)"/>
    <path d="M 165 360 L 170 235 L 180 360 Z" fill="hsla(218,42%,30%,0.75)"/>
    <circle cx="170" cy="225" r="22" fill="hsla(188,35%,48%,0.9)"/>
  </g>
  <rect x="0" y="0" width="340" height="510" fill="url(#vignette)" opacity="0.35"/>
  <rect width="340" height="510" fill="url(#vignette)"/>
  <text x="20" y="488" fill="hsla(188,18%,92%,0.7)" font-family="Outfit, system-ui, sans-serif" font-size="11" font-weight="600" letter-spacing="0.06em">TIDEGLASS</text>
  <text x="20" y="36" fill="hsla(188,25%,88%,0.35)" font-family="Outfit, system-ui, sans-serif" font-size="9" letter-spacing="0.12em">glass island ocean romance</text>
</svg>