<?xml version="1.0" encoding="UTF-8"?>
<svg xmlns="http://www.w3.org/2000/svg" viewBox="0 0 340 510" width="340" height="510">
  <defs>
    <linearGradient id="sky" x1="0%" y1="0%" x2="0%" y2="100%">
      <stop offset="0%" stop-color="hsl(178,70%,38%)"/>
      <stop offset="45%" stop-color="hsl(220,62%,22%)"/>
      <stop offset="100%" stop-color="hsl(178,57%,14%)"/>
    </linearGradient>
    <radialGradient id="sun" cx="72%" cy="18%" r="45%">
      <stop offset="0%" stop-color="hsla(198,70%,72%,0.55)"/>
      <stop offset="100%" stop-color="transparent"/>
    </radialGradient>
    <linearGradient id="vignette" x1="50%" y1="50%" x2="50%" y2="100%">
      <stop offset="55%" stop-color="transparent"/>
      <stop offset="100%" stop-color="rgba(0,0,0,0.72)"/>
    </linearGradient>
    <filter id="blur"><feGaussianBlur stdDeviation="18"/></filter>
  </defs>
  <rect width="340" height="510" fill="url(#sky)"/>
  <rect width="340" height="510" fill="url(#sun)"/>
  <circle cx="318" cy="32" r="0.8" fill="white" opacity="0.25"/><circle cx="314" cy="148" r="1.4" fill="white" opacity="0.37"/><circle cx="310" cy="64" r="2" fill="white" opacity="0.49"/><circle cx="306" cy="180" r="0.8" fill="white" opacity="0.61"/><circle cx="302" cy="96" r="1.4" fill="white" opacity="0.73"/><circle cx="298" cy="212" r="2" fill="white" opacity="0.25"/><circle cx="294" cy="128" r="0.8" fill="white" opacity="0.37"/><circle cx="290" cy="44" r="1.4" fill="white" opacity="0.49"/><circle cx="286" cy="160" r="2" fill="white" opacity="0.61"/><circle cx="282" cy="76" r="0.8" fill="white" opacity="0.73"/><circle cx="278" cy="192" r="1.4" fill="white" opacity="0.25"/><circle cx="274" cy="108" r="2" fill="white" opacity="0.37"/><circle cx="270" cy="24" r="0.8" fill="white" opacity="0.49"/><circle cx="266" cy="140" r="1.4" fill="white" opacity="0.61"/><circle cx="262" cy="56" r="2" fill="white" opacity="0.73"/><circle cx="258" cy="172" r="0.8" fill="white" opacity="0.25"/><circle cx="254" cy="88" r="1.4" fill="white" opacity="0.37"/><circle cx="250" cy="204" r="2" fill="white" opacity="0.49"/>
  <circle cx="176" cy="96" r="51" fill="hsla(228,62%,38%,0.18)"/>
  <rect x="0" y="280" width="340" height="230" fill="hsla(178,52%,14%,0.35)" filter="url(#blur)" opacity="0.6"/>
  <ellipse cx="170" cy="216" rx="120" ry="90" fill="hsla(178,72%,38%,0.22)"/>
  
  <ellipse cx="170" cy="420" rx="200" ry="55" fill="hsla(178,62%,14%,0.55)"/>
  <g opacity="0.85">
    <ellipse cx="170" cy="360" rx="48" ry="12" fill="hsla(178,20%,8%,0.5)"/>
    <path d="M 166 360 L 170 256 L 189 360 Z" fill="hsla(208,62%,22%,0.75)"/>
    <circle cx="170" cy="216" r="22" fill="hsla(178,35%,38%,0.9)"/>
  </g>
  <rect x="0" y="0" width="340" height="510" fill="url(#vignette)" opacity="0.35"/>
  <rect width="340" height="510" fill="url(#vignette)"/>
  <text x="20" y="488" fill="hsla(178,18%,92%,0.7)" font-family="Outfit, system-ui, sans-serif" font-size="11" font-weight="600" letter-spacing="0.06em">TITAN LETTERS</text>
  <text x="20" y="36" fill="hsla(178,25%,88%,0.35)" font-family="Outfit, system-ui, sans-serif" font-size="9" letter-spacing="0.12em">titan moon methane lakes sci-fi</text>
</svg>