<?xml version="1.0" encoding="UTF-8"?>
<svg xmlns="http://www.w3.org/2000/svg" viewBox="0 0 340 510" width="340" height="510">
  <defs>
    <linearGradient id="sky" x1="0%" y1="0%" x2="0%" y2="100%">
      <stop offset="0%" stop-color="hsl(340,43%,36%)"/>
      <stop offset="45%" stop-color="hsl(22,35%,24%)"/>
      <stop offset="100%" stop-color="hsl(340,30%,14%)"/>
    </linearGradient>
    <radialGradient id="sun" cx="72%" cy="18%" r="45%">
      <stop offset="0%" stop-color="hsla(0,70%,72%,0.55)"/>
      <stop offset="100%" stop-color="transparent"/>
    </radialGradient>
    <linearGradient id="vignette" x1="50%" y1="50%" x2="50%" y2="100%">
      <stop offset="55%" stop-color="transparent"/>
      <stop offset="100%" stop-color="rgba(0,0,0,0.72)"/>
    </linearGradient>
    <filter id="blur"><feGaussianBlur stdDeviation="18"/></filter>
  </defs>
  <rect width="340" height="510" fill="url(#sky)"/>
  <rect width="340" height="510" fill="url(#sun)"/>
  <circle cx="76" cy="94" r="0.8" fill="white" opacity="0.25"/><circle cx="98" cy="76" r="1.4" fill="white" opacity="0.37"/><circle cx="120" cy="58" r="2" fill="white" opacity="0.49"/><circle cx="142" cy="40" r="0.8" fill="white" opacity="0.61"/><circle cx="164" cy="22" r="1.4" fill="white" opacity="0.73"/><circle cx="186" cy="204" r="2" fill="white" opacity="0.25"/><circle cx="208" cy="186" r="0.8" fill="white" opacity="0.37"/><circle cx="230" cy="168" r="1.4" fill="white" opacity="0.49"/><circle cx="252" cy="150" r="2" fill="white" opacity="0.61"/><circle cx="274" cy="132" r="0.8" fill="white" opacity="0.73"/><circle cx="296" cy="114" r="1.4" fill="white" opacity="0.25"/><circle cx="318" cy="96" r="2" fill="white" opacity="0.37"/><circle cx="20" cy="78" r="0.8" fill="white" opacity="0.49"/><circle cx="42" cy="60" r="1.4" fill="white" opacity="0.61"/><circle cx="64" cy="42" r="2" fill="white" opacity="0.73"/><circle cx="86" cy="24" r="0.8" fill="white" opacity="0.25"/><circle cx="108" cy="206" r="1.4" fill="white" opacity="0.37"/><circle cx="130" cy="188" r="2" fill="white" opacity="0.49"/>
  <circle cx="242" cy="162" r="42" fill="hsla(30,35%,36%,0.18)"/>
  <rect x="0" y="280" width="340" height="230" fill="hsla(340,25%,14%,0.35)" filter="url(#blur)" opacity="0.6"/>
  <ellipse cx="170" cy="162" rx="120" ry="90" fill="hsla(340,45%,36%,0.22)"/>
  
  <ellipse cx="170" cy="420" rx="200" ry="55" fill="hsla(340,35%,14%,0.55)"/>
  <g opacity="0.85">
    <ellipse cx="170" cy="360" rx="48" ry="12" fill="hsla(340,20%,8%,0.5)"/>
    <path d="M 152 360 L 170 242 L 178 360 Z" fill="hsla(10,35%,24%,0.75)"/>
    <circle cx="170" cy="212" r="22" fill="hsla(340,35%,36%,0.9)"/>
  </g>
  <rect x="0" y="0" width="340" height="510" fill="url(#vignette)" opacity="0.35"/>
  <rect width="340" height="510" fill="url(#vignette)"/>
  <text x="20" y="488" fill="hsla(340,18%,92%,0.7)" font-family="Outfit, system-ui, sans-serif" font-size="11" font-weight="600" letter-spacing="0.06em">VELVET REBELLION</text>
  <text x="20" y="36" fill="hsla(340,25%,88%,0.35)" font-family="Outfit, system-ui, sans-serif" font-size="9" letter-spacing="0.12em">theater stage red curtain drama</text>
</svg>