<?xml version="1.0" encoding="UTF-8"?>
<svg xmlns="http://www.w3.org/2000/svg" viewBox="0 0 340 510" width="340" height="510">
  <defs>
    <linearGradient id="sky" x1="0%" y1="0%" x2="0%" y2="100%">
      <stop offset="0%" stop-color="hsl(65,66%,44%)"/>
      <stop offset="45%" stop-color="hsl(107,58%,28%)"/>
      <stop offset="100%" stop-color="hsl(65,53%,16%)"/>
    </linearGradient>
    <radialGradient id="sun" cx="72%" cy="18%" r="45%">
      <stop offset="0%" stop-color="hsla(85,70%,72%,0.55)"/>
      <stop offset="100%" stop-color="transparent"/>
    </radialGradient>
    <linearGradient id="vignette" x1="50%" y1="50%" x2="50%" y2="100%">
      <stop offset="55%" stop-color="transparent"/>
      <stop offset="100%" stop-color="rgba(0,0,0,0.72)"/>
    </linearGradient>
    <filter id="blur"><feGaussianBlur stdDeviation="18"/></filter>
  </defs>
  <rect width="340" height="510" fill="url(#sky)"/>
  <rect width="340" height="510" fill="url(#sun)"/>
  <circle cx="151" cy="189" r="0.8" fill="white" opacity="0.25"/><circle cx="198" cy="156" r="1.4" fill="white" opacity="0.37"/><circle cx="245" cy="123" r="2" fill="white" opacity="0.49"/><circle cx="292" cy="90" r="0.8" fill="white" opacity="0.61"/><circle cx="19" cy="57" r="1.4" fill="white" opacity="0.73"/><circle cx="66" cy="24" r="2" fill="white" opacity="0.25"/><circle cx="113" cy="191" r="0.8" fill="white" opacity="0.37"/><circle cx="160" cy="158" r="1.4" fill="white" opacity="0.49"/><circle cx="207" cy="125" r="2" fill="white" opacity="0.61"/><circle cx="254" cy="92" r="0.8" fill="white" opacity="0.73"/><circle cx="301" cy="59" r="1.4" fill="white" opacity="0.25"/><circle cx="28" cy="26" r="2" fill="white" opacity="0.37"/><circle cx="75" cy="193" r="0.8" fill="white" opacity="0.49"/><circle cx="122" cy="160" r="1.4" fill="white" opacity="0.61"/><circle cx="169" cy="127" r="2" fill="white" opacity="0.73"/><circle cx="216" cy="94" r="0.8" fill="white" opacity="0.25"/><circle cx="263" cy="61" r="1.4" fill="white" opacity="0.37"/><circle cx="310" cy="28" r="2" fill="white" opacity="0.49"/>
  <circle cx="227" cy="147" r="52" fill="hsla(115,58%,44%,0.18)"/>
  <rect x="0" y="280" width="340" height="230" fill="hsla(65,48%,16%,0.35)" filter="url(#blur)" opacity="0.6"/>
  <ellipse cx="170" cy="187" rx="120" ry="90" fill="hsla(65,68%,44%,0.22)"/>
  
  <ellipse cx="170" cy="420" rx="200" ry="55" fill="hsla(65,58%,16%,0.55)"/>
  <g opacity="0.85">
    <ellipse cx="170" cy="360" rx="48" ry="12" fill="hsla(65,20%,8%,0.5)"/>
    <path d="M 157 360 L 170 227 L 183 360 Z" fill="hsla(95,58%,28%,0.75)"/>
    <circle cx="170" cy="207" r="22" fill="hsla(65,35%,44%,0.9)"/>
  </g>
  <rect x="0" y="0" width="340" height="510" fill="url(#vignette)" opacity="0.35"/>
  <rect width="340" height="510" fill="url(#vignette)"/>
  <text x="20" y="488" fill="hsla(65,18%,92%,0.7)" font-family="Outfit, system-ui, sans-serif" font-size="11" font-weight="600" letter-spacing="0.06em">VOLTAGE BLOOM</text>
  <text x="20" y="36" fill="hsla(65,25%,88%,0.35)" font-family="Outfit, system-ui, sans-serif" font-size="9" letter-spacing="0.12em">electric flowers city action</text>
</svg>