<?xml version="1.0" encoding="UTF-8"?>
<svg xmlns="http://www.w3.org/2000/svg" viewBox="0 0 340 510" width="340" height="510">
  <defs>
    <linearGradient id="sky" x1="0%" y1="0%" x2="0%" y2="100%">
      <stop offset="0%" stop-color="hsl(265,48%,34%)"/>
      <stop offset="45%" stop-color="hsl(307,40%,20%)"/>
      <stop offset="100%" stop-color="hsl(265,35%,12%)"/>
    </linearGradient>
    <radialGradient id="sun" cx="72%" cy="18%" r="45%">
      <stop offset="0%" stop-color="hsla(285,70%,72%,0.55)"/>
      <stop offset="100%" stop-color="transparent"/>
    </radialGradient>
    <linearGradient id="vignette" x1="50%" y1="50%" x2="50%" y2="100%">
      <stop offset="55%" stop-color="transparent"/>
      <stop offset="100%" stop-color="rgba(0,0,0,0.72)"/>
    </linearGradient>
    <filter id="blur"><feGaussianBlur stdDeviation="18"/></filter>
  </defs>
  <rect width="340" height="510" fill="url(#sky)"/>
  <rect width="340" height="510" fill="url(#sun)"/>
  <circle cx="185" cy="215" r="0.8" fill="white" opacity="0.25"/><circle cx="30" cy="100" r="1.4" fill="white" opacity="0.37"/><circle cx="195" cy="185" r="2" fill="white" opacity="0.49"/><circle cx="40" cy="70" r="0.8" fill="white" opacity="0.61"/><circle cx="205" cy="155" r="1.4" fill="white" opacity="0.73"/><circle cx="50" cy="40" r="2" fill="white" opacity="0.25"/><circle cx="215" cy="125" r="0.8" fill="white" opacity="0.37"/><circle cx="60" cy="210" r="1.4" fill="white" opacity="0.49"/><circle cx="225" cy="95" r="2" fill="white" opacity="0.61"/><circle cx="70" cy="180" r="0.8" fill="white" opacity="0.73"/><circle cx="235" cy="65" r="1.4" fill="white" opacity="0.25"/><circle cx="80" cy="150" r="2" fill="white" opacity="0.37"/><circle cx="245" cy="35" r="0.8" fill="white" opacity="0.49"/><circle cx="90" cy="120" r="1.4" fill="white" opacity="0.61"/><circle cx="255" cy="205" r="2" fill="white" opacity="0.73"/><circle cx="100" cy="90" r="0.8" fill="white" opacity="0.25"/><circle cx="265" cy="175" r="1.4" fill="white" opacity="0.37"/><circle cx="110" cy="60" r="2" fill="white" opacity="0.49"/>
  <circle cx="145" cy="165" r="45" fill="hsla(315,40%,34%,0.18)"/>
  <rect x="0" y="280" width="340" height="230" fill="hsla(265,30%,12%,0.35)" filter="url(#blur)" opacity="0.6"/>
  <ellipse cx="170" cy="145" rx="120" ry="90" fill="hsla(265,50%,34%,0.22)"/>
  
  <ellipse cx="170" cy="420" rx="200" ry="55" fill="hsla(265,40%,12%,0.55)"/>
  <g opacity="0.85">
    <ellipse cx="170" cy="360" rx="48" ry="12" fill="hsla(265,20%,8%,0.5)"/>
    <path d="M 155 360 L 170 225 L 180 360 Z" fill="hsla(295,40%,20%,0.75)"/>
    <circle cx="170" cy="225" r="22" fill="hsla(265,35%,34%,0.9)"/>
  </g>
  <rect x="0" y="0" width="340" height="510" fill="url(#vignette)" opacity="0.35"/>
  <rect width="340" height="510" fill="url(#vignette)"/>
  <text x="20" y="488" fill="hsla(265,18%,92%,0.7)" font-family="Outfit, system-ui, sans-serif" font-size="11" font-weight="600" letter-spacing="0.06em">WHISPER FACTORY</text>
  <text x="20" y="36" fill="hsla(265,25%,88%,0.35)" font-family="Outfit, system-ui, sans-serif" font-size="9" letter-spacing="0.12em">factory whispers smoke mystery</text>
</svg>