<?xml version="1.0" encoding="UTF-8"?>
<svg xmlns="http://www.w3.org/2000/svg" viewBox="0 0 340 510" width="340" height="510">
  <defs>
    <linearGradient id="sky" x1="0%" y1="0%" x2="0%" y2="100%">
      <stop offset="0%" stop-color="hsl(210,70%,38%)"/>
      <stop offset="45%" stop-color="hsl(252,62%,22%)"/>
      <stop offset="100%" stop-color="hsl(210,57%,14%)"/>
    </linearGradient>
    <radialGradient id="sun" cx="72%" cy="18%" r="45%">
      <stop offset="0%" stop-color="hsla(230,70%,72%,0.55)"/>
      <stop offset="100%" stop-color="transparent"/>
    </radialGradient>
    <linearGradient id="vignette" x1="50%" y1="50%" x2="50%" y2="100%">
      <stop offset="55%" stop-color="transparent"/>
      <stop offset="100%" stop-color="rgba(0,0,0,0.72)"/>
    </linearGradient>
    <filter id="blur"><feGaussianBlur stdDeviation="18"/></filter>
  </defs>
  <rect width="340" height="510" fill="url(#sky)"/>
  <rect width="340" height="510" fill="url(#sun)"/>
  <circle cx="229" cy="131" r="0.8" fill="white" opacity="0.25"/><circle cx="302" cy="204" r="1.4" fill="white" opacity="0.37"/><circle cx="55" cy="77" r="2" fill="white" opacity="0.49"/><circle cx="128" cy="150" r="0.8" fill="white" opacity="0.61"/><circle cx="201" cy="23" r="1.4" fill="white" opacity="0.73"/><circle cx="274" cy="96" r="2" fill="white" opacity="0.25"/><circle cx="27" cy="169" r="0.8" fill="white" opacity="0.37"/><circle cx="100" cy="42" r="1.4" fill="white" opacity="0.49"/><circle cx="173" cy="115" r="2" fill="white" opacity="0.61"/><circle cx="246" cy="188" r="0.8" fill="white" opacity="0.73"/><circle cx="319" cy="61" r="1.4" fill="white" opacity="0.25"/><circle cx="72" cy="134" r="2" fill="white" opacity="0.37"/><circle cx="145" cy="207" r="0.8" fill="white" opacity="0.49"/><circle cx="218" cy="80" r="1.4" fill="white" opacity="0.61"/><circle cx="291" cy="153" r="2" fill="white" opacity="0.73"/><circle cx="44" cy="26" r="0.8" fill="white" opacity="0.25"/><circle cx="117" cy="99" r="1.4" fill="white" opacity="0.37"/><circle cx="190" cy="172" r="2" fill="white" opacity="0.49"/>
  <circle cx="133" cy="153" r="58" fill="hsla(260,62%,38%,0.18)"/>
  <rect x="0" y="280" width="340" height="230" fill="hsla(210,52%,14%,0.35)" filter="url(#blur)" opacity="0.6"/>
  <ellipse cx="170" cy="213" rx="120" ry="90" fill="hsla(210,72%,38%,0.22)"/>
  
  <ellipse cx="170" cy="420" rx="200" ry="55" fill="hsla(210,62%,14%,0.55)"/>
  <g opacity="0.85">
    <ellipse cx="170" cy="360" rx="48" ry="12" fill="hsla(210,20%,8%,0.5)"/>
    <path d="M 163 360 L 170 253 L 182 360 Z" fill="hsla(240,62%,22%,0.75)"/>
    <circle cx="170" cy="223" r="22" fill="hsla(210,35%,38%,0.9)"/>
  </g>
  <rect x="0" y="0" width="340" height="510" fill="url(#vignette)" opacity="0.35"/>
  <rect width="340" height="510" fill="url(#vignette)"/>
  <text x="20" y="488" fill="hsla(210,18%,92%,0.7)" font-family="Outfit, system-ui, sans-serif" font-size="11" font-weight="600" letter-spacing="0.06em">WINTER CIRCUIT</text>
  <text x="20" y="36" fill="hsla(210,25%,88%,0.35)" font-family="Outfit, system-ui, sans-serif" font-size="9" letter-spacing="0.12em">frozen city circuits blue ice</text>
</svg>