<?xml version="1.0" encoding="UTF-8"?>
<svg xmlns="http://www.w3.org/2000/svg" viewBox="0 0 340 510" width="340" height="510">
  <defs>
    <linearGradient id="sky" x1="0%" y1="0%" x2="0%" y2="100%">
      <stop offset="0%" stop-color="hsl(300,50%,48%)"/>
      <stop offset="45%" stop-color="hsl(342,42%,30%)"/>
      <stop offset="100%" stop-color="hsl(300,37%,18%)"/>
    </linearGradient>
    <radialGradient id="sun" cx="72%" cy="18%" r="45%">
      <stop offset="0%" stop-color="hsla(320,70%,72%,0.55)"/>
      <stop offset="100%" stop-color="transparent"/>
    </radialGradient>
    <linearGradient id="vignette" x1="50%" y1="50%" x2="50%" y2="100%">
      <stop offset="55%" stop-color="transparent"/>
      <stop offset="100%" stop-color="rgba(0,0,0,0.72)"/>
    </linearGradient>
    <filter id="blur"><feGaussianBlur stdDeviation="18"/></filter>
  </defs>
  <rect width="340" height="510" fill="url(#sky)"/>
  <rect width="340" height="510" fill="url(#sun)"/>
  <circle cx="234" cy="116" r="0.8" fill="white" opacity="0.25"/><circle cx="202" cy="44" r="1.4" fill="white" opacity="0.37"/><circle cx="170" cy="172" r="2" fill="white" opacity="0.49"/><circle cx="138" cy="100" r="0.8" fill="white" opacity="0.61"/><circle cx="106" cy="28" r="1.4" fill="white" opacity="0.73"/><circle cx="74" cy="156" r="2" fill="white" opacity="0.25"/><circle cx="42" cy="84" r="0.8" fill="white" opacity="0.37"/><circle cx="10" cy="212" r="1.4" fill="white" opacity="0.49"/><circle cx="298" cy="140" r="2" fill="white" opacity="0.61"/><circle cx="266" cy="68" r="0.8" fill="white" opacity="0.73"/><circle cx="234" cy="196" r="1.4" fill="white" opacity="0.25"/><circle cx="202" cy="124" r="2" fill="white" opacity="0.37"/><circle cx="170" cy="52" r="0.8" fill="white" opacity="0.49"/><circle cx="138" cy="180" r="1.4" fill="white" opacity="0.61"/><circle cx="106" cy="108" r="2" fill="white" opacity="0.73"/><circle cx="74" cy="36" r="0.8" fill="white" opacity="0.25"/><circle cx="42" cy="164" r="1.4" fill="white" opacity="0.37"/><circle cx="10" cy="92" r="2" fill="white" opacity="0.49"/>
  <circle cx="188" cy="108" r="38" fill="hsla(350,42%,48%,0.18)"/>
  <rect x="0" y="280" width="340" height="230" fill="hsla(300,32%,18%,0.35)" filter="url(#blur)" opacity="0.6"/>
  <ellipse cx="170" cy="188" rx="120" ry="90" fill="hsla(300,52%,48%,0.22)"/>
  
  <ellipse cx="170" cy="420" rx="200" ry="55" fill="hsla(300,42%,18%,0.55)"/>
  <g opacity="0.85">
    <ellipse cx="170" cy="360" rx="48" ry="12" fill="hsla(300,20%,8%,0.5)"/>
    <path d="M 158 360 L 170 228 L 177 360 Z" fill="hsla(330,42%,30%,0.75)"/>
    <circle cx="170" cy="228" r="22" fill="hsla(300,35%,48%,0.9)"/>
  </g>
  <rect x="0" y="0" width="340" height="510" fill="url(#vignette)" opacity="0.35"/>
  <rect width="340" height="510" fill="url(#vignette)"/>
  <text x="20" y="488" fill="hsla(300,18%,92%,0.7)" font-family="Outfit, system-ui, sans-serif" font-size="11" font-weight="600" letter-spacing="0.06em">ZERO GRAVITY WALTZ</text>
  <text x="20" y="36" fill="hsla(300,25%,88%,0.35)" font-family="Outfit, system-ui, sans-serif" font-size="9" letter-spacing="0.12em">couple dancing zero gravity ballroom</text>
</svg>